<svg width="328" height="86" viewBox="0 0 328 86" fill="none" xmlns="http://www.w3.org/2000/svg">
<mask id="path-1-outside-1_551_9" maskUnits="userSpaceOnUse" x="0" y="24" width="46" height="50" fill="black">
<rect fill="white" y="24" width="46" height="50"/>
<path d="M42.9119 43.1733H32.2585C32.1165 42.0795 31.8253 41.0923 31.3849 40.2116C30.9446 39.331 30.3622 38.5781 29.6378 37.9531C28.9134 37.3281 28.054 36.8523 27.0597 36.5256C26.0795 36.1847 24.9929 36.0142 23.7997 36.0142C21.6832 36.0142 19.858 36.5327 18.3239 37.5696C16.804 38.6065 15.6321 40.1051 14.8082 42.0653C13.9986 44.0256 13.5938 46.3977 13.5938 49.1818C13.5938 52.0795 14.0057 54.5085 14.8295 56.4688C15.6676 58.4148 16.8395 59.8849 18.3452 60.8793C19.8651 61.8594 21.6619 62.3494 23.7358 62.3494C24.9006 62.3494 25.9588 62.2003 26.9105 61.902C27.8764 61.6037 28.7216 61.1705 29.446 60.6023C30.1847 60.0199 30.7884 59.3168 31.2571 58.4929C31.7401 57.6548 32.0739 56.7102 32.2585 55.6591L42.9119 55.723C42.7273 57.6548 42.1662 59.5582 41.2287 61.4332C40.3054 63.3082 39.0341 65.0199 37.4148 66.5682C35.7955 68.1023 33.821 69.3239 31.4915 70.233C29.1761 71.142 26.5199 71.5966 23.5227 71.5966C19.5739 71.5966 16.0369 70.7301 12.9119 68.9972C9.80114 67.25 7.34375 64.7074 5.53977 61.3693C3.7358 58.0312 2.83381 53.9687 2.83381 49.1818C2.83381 44.3807 3.75 40.3111 5.58239 36.973C7.41477 33.6349 9.89347 31.0994 13.0185 29.3665C16.1435 27.6335 19.6449 26.767 23.5227 26.767C26.1648 26.767 28.608 27.1364 30.8523 27.875C33.0966 28.5994 35.071 29.6648 36.7756 31.071C38.4801 32.4631 39.8651 34.1747 40.9304 36.206C41.9957 38.2372 42.6562 40.5597 42.9119 43.1733Z"/>
</mask>
<path d="M42.9119 43.1733V45.1733H45.1171L44.9024 42.9786L42.9119 43.1733ZM32.2585 43.1733L30.2752 43.4309L30.5015 45.1733H32.2585V43.1733ZM31.3849 40.2116L29.5961 41.1061V41.1061L31.3849 40.2116ZM29.6378 37.9531L30.9443 36.4388V36.4388L29.6378 37.9531ZM27.0597 36.5256L26.4026 38.4146L26.4189 38.4202L26.4354 38.4256L27.0597 36.5256ZM18.3239 37.5696L17.2039 35.9126L17.1967 35.9175L18.3239 37.5696ZM14.8082 42.0653L12.9644 41.2904L12.9597 41.3018L14.8082 42.0653ZM14.8295 56.4688L12.9858 57.2437L12.9892 57.2518L12.9926 57.2598L14.8295 56.4688ZM18.3452 60.8793L17.243 62.5482L17.2521 62.5542L17.2613 62.5601L18.3452 60.8793ZM26.9105 61.902L26.3204 59.991L26.3123 59.9935L26.9105 61.902ZM29.446 60.6023L30.6803 62.176L30.6843 62.1728L29.446 60.6023ZM31.2571 58.4929L29.5242 57.4943L29.5188 57.5038L31.2571 58.4929ZM32.2585 55.6591L32.2705 53.6591L30.581 53.649L30.2887 55.313L32.2585 55.6591ZM42.9119 55.723L44.9029 55.9133L45.111 53.7362L42.9239 53.723L42.9119 55.723ZM41.2287 61.4332L39.4398 60.5388L39.4344 60.5497L41.2287 61.4332ZM37.4148 66.5682L38.7903 68.0201L38.7969 68.0137L37.4148 66.5682ZM31.4915 70.233L30.7644 68.3698L30.7605 68.3713L31.4915 70.233ZM12.9119 68.9972L11.9325 70.741L11.942 70.7462L12.9119 68.9972ZM5.53977 61.3693L7.29927 60.4184L5.53977 61.3693ZM5.58239 36.973L3.82917 36.0106L5.58239 36.973ZM30.8523 27.875L30.227 29.7748L30.2379 29.7783L30.8523 27.875ZM36.7756 31.071L35.5028 32.6138L35.5105 32.6201L36.7756 31.071ZM42.9119 41.1733H32.2585V45.1733H42.9119V41.1733ZM34.2419 42.9157C34.0745 41.6267 33.7253 40.4203 33.1738 39.3172L29.5961 41.1061C29.9252 41.7643 30.1585 42.5324 30.2752 43.4309L34.2419 42.9157ZM33.1738 39.3172C32.6187 38.2071 31.8747 37.2416 30.9443 36.4388L28.3313 39.4674C28.8497 39.9147 29.2705 40.4548 29.5961 41.1061L33.1738 39.3172ZM30.9443 36.4388C30.0021 35.6259 28.9052 35.0268 27.684 34.6255L26.4354 38.4256C27.2027 38.6778 27.8246 39.0303 28.3313 39.4674L30.9443 36.4388ZM27.7167 34.6366C26.4963 34.2121 25.1836 34.0142 23.7997 34.0142V38.0142C24.8022 38.0142 25.6628 38.1572 26.4026 38.4146L27.7167 34.6366ZM23.7997 34.0142C21.3429 34.0142 19.1143 34.6213 17.2039 35.9126L19.4439 39.2266C20.6016 38.4441 22.0235 38.0142 23.7997 38.0142V34.0142ZM17.1967 35.9175C15.3112 37.2038 13.9139 39.0315 12.9645 41.2904L16.652 42.8403C17.3503 41.1788 18.2967 40.0092 19.451 39.2217L17.1967 35.9175ZM12.9597 41.3018C12.0241 43.567 11.5938 46.2136 11.5938 49.1818H15.5938C15.5938 46.5819 15.9731 44.4841 16.6568 42.8289L12.9597 41.3018ZM11.5938 49.1818C11.5938 52.255 12.0287 54.9665 12.9858 57.2437L16.6733 55.6938C15.9827 54.0506 15.5938 51.904 15.5938 49.1818H11.5938ZM12.9926 57.2598C13.9575 59.5002 15.3588 61.3039 17.243 62.5482L19.4473 59.2103C18.3202 58.466 17.3778 57.3294 16.6664 55.6777L12.9926 57.2598ZM17.2613 62.5601C19.1497 63.7778 21.3353 64.3494 23.7358 64.3494V60.3494C21.9885 60.3494 20.5804 59.9409 19.4291 59.1984L17.2613 62.5601ZM23.7358 64.3494C25.0702 64.3494 26.3341 64.1786 27.5087 63.8104L26.3123 59.9935C25.5836 60.222 24.7309 60.3494 23.7358 60.3494V64.3494ZM27.5007 63.8129C28.6772 63.4496 29.7456 62.9091 30.6803 62.176L28.2117 59.0286C27.6976 59.4318 27.0757 59.7578 26.3204 59.991L27.5007 63.8129ZM30.6843 62.1728C31.6272 61.4294 32.4001 60.5283 32.9954 59.4819L29.5188 57.5038C29.1766 58.1052 28.7421 58.6104 28.2077 59.0317L30.6843 62.1728ZM32.99 59.4915C33.6008 58.4316 34.0075 57.2623 34.2284 56.0051L30.2887 55.313C30.1402 56.1582 29.8793 56.8781 29.5242 57.4943L32.99 59.4915ZM32.2465 57.6591L42.8999 57.723L42.9239 53.723L32.2705 53.6591L32.2465 57.6591ZM40.921 55.5327C40.7616 57.2004 40.2761 58.8663 39.4398 60.5388L43.0176 62.3277C44.0563 60.2502 44.6929 58.1093 44.9029 55.9133L40.921 55.5327ZM39.4344 60.5497C38.6218 62.2 37.495 63.7244 36.0326 65.1226L38.7969 68.0137C40.5732 66.3154 41.989 64.4165 43.023 62.3168L39.4344 60.5497ZM36.0393 65.1163C34.6289 66.4524 32.8823 67.5433 30.7644 68.3698L32.2186 72.0961C34.7597 71.1044 36.962 69.7521 38.7903 68.0201L36.0393 65.1163ZM30.7605 68.3713C28.7204 69.1723 26.3197 69.5966 23.5227 69.5966V73.5966C26.7201 73.5966 29.6319 73.1118 32.2224 72.0946L30.7605 68.3713ZM23.5227 69.5966C19.8768 69.5966 16.6797 68.7996 13.8819 67.2481L11.942 70.7462C15.3941 72.6606 19.271 73.5966 23.5227 73.5966V69.5966ZM13.8913 67.2534C11.1315 65.7034 8.93536 63.4458 7.29927 60.4184L3.78028 62.3202C5.75215 65.9689 8.47074 68.7966 11.9325 70.7409L13.8913 67.2534ZM7.29927 60.4184C5.68917 57.4391 4.83381 53.7218 4.83381 49.1818H0.833807C0.833807 54.2157 1.78242 58.6234 3.78028 62.3202L7.29927 60.4184ZM4.83381 49.1818C4.83381 44.631 5.70203 40.9113 7.33561 37.9354L3.82917 36.0106C1.79797 39.7109 0.833807 44.1303 0.833807 49.1818H4.83381ZM7.33561 37.9354C8.99882 34.9055 11.2154 32.6533 13.9884 31.1155L12.0485 27.6174C8.5715 29.5456 5.83073 32.3644 3.82917 36.0106L7.33561 37.9354ZM13.9884 31.1155C16.7917 29.561 19.9545 28.767 23.5227 28.767V24.767C19.3352 24.767 15.4953 25.706 12.0485 27.6174L13.9884 31.1155ZM23.5227 28.767C25.9772 28.767 28.2068 29.1099 30.227 29.7748L31.4775 25.9752C29.0091 25.1629 26.3523 24.767 23.5227 24.767V28.767ZM30.2379 29.7783C32.2583 30.4304 34.0058 31.3787 35.5028 32.6138L38.0483 29.5283C36.1362 27.9508 33.9349 26.7684 31.4666 25.9717L30.2379 29.7783ZM35.5105 32.6201C36.9975 33.8344 38.2137 35.3321 39.1592 37.1349L42.7016 35.277C41.5164 33.0174 39.9628 31.0917 38.0406 29.522L35.5105 32.6201ZM39.1592 37.1349C40.0887 38.9072 40.6872 40.9741 40.9214 43.368L44.9024 42.9786C44.6253 40.1452 43.9027 37.5673 42.7016 35.277L39.1592 37.1349Z" fill="white" mask="url(#path-1-outside-1_551_9)"/>
<path d="M97.9389 29.6179C97.6974 28.723 97.3423 27.9347 96.8736 27.2528C96.4048 26.5568 95.8295 25.9673 95.1477 25.4844C94.4659 25.0014 93.6847 24.6392 92.804 24.3977C91.9233 24.142 90.9574 24.0142 89.9062 24.0142C87.7898 24.0142 85.9574 24.5256 84.4091 25.5483C82.875 26.571 81.6889 28.0625 80.8509 30.0227C80.0128 31.9687 79.5938 34.3338 79.5938 37.1179C79.5938 39.9162 79.9986 42.3026 80.8082 44.277C81.6179 46.2514 82.7898 47.7571 84.3239 48.794C85.858 49.831 87.7188 50.3494 89.9062 50.3494C91.8381 50.3494 93.4716 50.0369 94.8068 49.4119C96.1563 48.7727 97.179 47.8707 97.875 46.706C98.571 45.5412 98.919 44.1705 98.919 42.5938L100.879 42.8281H90.2685V35.1364H109.082V40.9105C109.082 44.8168 108.251 48.1619 106.589 50.946C104.942 53.7301 102.669 55.8679 99.7713 57.3594C96.8878 58.8509 93.571 59.5966 89.821 59.5966C85.6591 59.5966 82.0014 58.6946 78.848 56.8906C75.6946 55.0866 73.2372 52.5156 71.4759 49.1776C69.7145 45.8253 68.8338 41.848 68.8338 37.2457C68.8338 33.6662 69.3665 30.4915 70.4318 27.7216C71.4972 24.9375 72.9815 22.5795 74.8849 20.6477C76.8026 18.7159 79.0185 17.2528 81.5327 16.2585C84.0611 15.2642 86.7813 14.767 89.6932 14.767C92.2216 14.767 94.5724 15.1293 96.7457 15.8537C98.9332 16.5781 100.865 17.6009 102.541 18.9219C104.232 20.2429 105.602 21.8125 106.653 23.6307C107.705 25.4489 108.358 27.4446 108.614 29.6179H97.9389ZM118.299 59V15.3636H148.725V23.929H128.846V32.8778H147.169V41.4645H128.846V50.4347H148.725V59H118.299ZM195.468 15.3636V59H186.519L169.154 33.8153H168.877V59H158.33V15.3636H167.407L184.58 40.5057H184.942V15.3636H195.468ZM215.646 15.3636V59H205.099V15.3636H215.646ZM251.667 15.3636H262.192V43.5099C262.192 46.7628 261.418 49.5966 259.87 52.0114C258.321 54.4119 256.162 56.2727 253.392 57.5938C250.623 58.9006 247.405 59.554 243.74 59.554C240.033 59.554 236.794 58.9006 234.025 57.5938C231.255 56.2727 229.103 54.4119 227.569 52.0114C226.034 49.5966 225.267 46.7628 225.267 43.5099V15.3636H235.814V42.5938C235.814 44.0994 236.141 45.4418 236.794 46.6207C237.462 47.7997 238.392 48.723 239.586 49.3906C240.779 50.0582 242.164 50.392 243.74 50.392C245.317 50.392 246.695 50.0582 247.874 49.3906C249.067 48.723 249.998 47.7997 250.665 46.6207C251.333 45.4418 251.667 44.0994 251.667 42.5938V15.3636ZM295.389 28.446C295.247 26.8835 294.615 25.669 293.493 24.8026C292.385 23.9219 290.801 23.4815 288.741 23.4815C287.378 23.4815 286.241 23.6591 285.332 24.0142C284.423 24.3693 283.741 24.8594 283.287 25.4844C282.832 26.0952 282.598 26.7983 282.584 27.5938C282.555 28.2472 282.683 28.8224 282.967 29.3196C283.266 29.8168 283.692 30.2571 284.246 30.6406C284.814 31.0099 285.496 31.3366 286.291 31.6207C287.087 31.9048 287.982 32.1534 288.976 32.3665L292.726 33.2188C294.885 33.6875 296.788 34.3125 298.436 35.0938C300.098 35.875 301.49 36.8054 302.612 37.8849C303.749 38.9645 304.608 40.2074 305.19 41.6136C305.773 43.0199 306.071 44.5966 306.085 46.3438C306.071 49.0994 305.375 51.4645 303.997 53.4389C302.619 55.4134 300.638 56.9261 298.053 57.9773C295.482 59.0284 292.378 59.554 288.741 59.554C285.091 59.554 281.909 59.0071 279.196 57.9134C276.483 56.8196 274.374 55.1577 272.868 52.9276C271.362 50.6974 270.588 47.8778 270.545 44.4688H280.645C280.73 45.875 281.107 47.0469 281.774 47.9844C282.442 48.9219 283.358 49.6321 284.523 50.1151C285.702 50.598 287.065 50.8395 288.614 50.8395C290.034 50.8395 291.241 50.6477 292.236 50.2642C293.244 49.8807 294.018 49.348 294.558 48.6662C295.098 47.9844 295.375 47.2031 295.389 46.3224C295.375 45.4986 295.119 44.7955 294.622 44.2131C294.125 43.6165 293.358 43.1051 292.321 42.679C291.298 42.2386 289.991 41.8338 288.401 41.4645L283.841 40.3991C280.062 39.5327 277.087 38.1335 274.913 36.2017C272.74 34.2557 271.661 31.6278 271.675 28.3182C271.661 25.6193 272.385 23.2543 273.848 21.223C275.311 19.1918 277.335 17.608 279.92 16.4716C282.506 15.3352 285.453 14.767 288.763 14.767C292.143 14.767 295.077 15.3423 297.562 16.4929C300.062 17.6293 302.001 19.2273 303.379 21.2869C304.757 23.3466 305.46 25.733 305.489 28.446H295.389Z" fill="white"/>
<path d="M308.375 17.9858V16.2727H315.751V17.9858H313.105V25H311.026V17.9858H308.375ZM317.382 16.2727H319.994L322.21 21.6761H322.312L324.528 16.2727H327.14V25H325.086V19.6392H325.014L322.917 24.9446H321.605L319.508 19.6094H319.436V25H317.382V16.2727Z" fill="white"/>
<path d="M77.5824 65.4347H75.4517C75.4233 65.2159 75.3651 65.0185 75.277 64.8423C75.1889 64.6662 75.0724 64.5156 74.9276 64.3906C74.7827 64.2656 74.6108 64.1705 74.4119 64.1051C74.2159 64.0369 73.9986 64.0028 73.7599 64.0028C73.3366 64.0028 72.9716 64.1065 72.6648 64.3139C72.3608 64.5213 72.1264 64.821 71.9616 65.2131C71.7997 65.6051 71.7188 66.0795 71.7188 66.6364C71.7188 67.2159 71.8011 67.7017 71.9659 68.0938C72.1335 68.483 72.3679 68.777 72.669 68.9759C72.973 69.1719 73.3324 69.2699 73.7472 69.2699C73.9801 69.2699 74.1918 69.2401 74.3821 69.1804C74.5753 69.1207 74.7443 69.0341 74.8892 68.9205C75.0369 68.804 75.1577 68.6634 75.2514 68.4986C75.348 68.331 75.4148 68.142 75.4517 67.9318L77.5824 67.9446C77.5455 68.331 77.4332 68.7116 77.2457 69.0866C77.0611 69.4616 76.8068 69.804 76.483 70.1136C76.1591 70.4205 75.7642 70.6648 75.2983 70.8466C74.8352 71.0284 74.304 71.1193 73.7045 71.1193C72.9148 71.1193 72.2074 70.946 71.5824 70.5994C70.9602 70.25 70.4688 69.7415 70.108 69.0739C69.7472 68.4062 69.5668 67.5937 69.5668 66.6364C69.5668 65.6761 69.75 64.8622 70.1165 64.1946C70.483 63.527 70.9787 63.0199 71.6037 62.6733C72.2287 62.3267 72.929 62.1534 73.7045 62.1534C74.233 62.1534 74.7216 62.2273 75.1705 62.375C75.6193 62.5199 76.0142 62.733 76.3551 63.0142C76.696 63.2926 76.973 63.6349 77.1861 64.0412C77.3991 64.4474 77.5312 64.9119 77.5824 65.4347ZM82.4448 71.1236C81.7573 71.1236 81.1664 70.983 80.6721 70.7017C80.1806 70.4176 79.8013 70.0227 79.5343 69.517C79.2701 69.0085 79.138 68.419 79.138 67.7486C79.138 67.0753 79.2701 66.4858 79.5343 65.9801C79.8013 65.4716 80.1806 65.0767 80.6721 64.7955C81.1664 64.5114 81.7573 64.3693 82.4448 64.3693C83.1323 64.3693 83.7218 64.5114 84.2133 64.7955C84.7076 65.0767 85.0869 65.4716 85.3511 65.9801C85.6181 66.4858 85.7516 67.0753 85.7516 67.7486C85.7516 68.419 85.6181 69.0085 85.3511 69.517C85.0869 70.0227 84.7076 70.4176 84.2133 70.7017C83.7218 70.983 83.1323 71.1236 82.4448 71.1236ZM82.4576 69.5511C82.7076 69.5511 82.9192 69.4744 83.0925 69.321C83.2658 69.1676 83.3979 68.9545 83.4888 68.6818C83.5826 68.4091 83.6295 68.0937 83.6295 67.7358C83.6295 67.3722 83.5826 67.054 83.4888 66.7812C83.3979 66.5085 83.2658 66.2955 83.0925 66.142C82.9192 65.9886 82.7076 65.9119 82.4576 65.9119C82.1991 65.9119 81.9803 65.9886 81.8013 66.142C81.6252 66.2955 81.4903 66.5085 81.3965 66.7812C81.3056 67.054 81.2602 67.3722 81.2602 67.7358C81.2602 68.0937 81.3056 68.4091 81.3965 68.6818C81.4903 68.9545 81.6252 69.1676 81.8013 69.321C81.9803 69.4744 82.1991 69.5511 82.4576 69.5511ZM87.4191 71V64.4545H89.4433V65.6477H89.5114C89.6308 65.2159 89.8254 64.8949 90.0952 64.6847C90.3651 64.4716 90.679 64.3651 91.037 64.3651C91.1336 64.3651 91.233 64.3722 91.3353 64.3864C91.4376 64.3977 91.5327 64.4162 91.6208 64.4418V66.2528C91.5214 66.2187 91.3907 66.1918 91.2288 66.1719C91.0697 66.152 90.9276 66.142 90.8026 66.142C90.5555 66.142 90.3325 66.1974 90.1336 66.3082C89.9376 66.4162 89.7827 66.5682 89.6691 66.7642C89.5583 66.9574 89.5029 67.1847 89.5029 67.446V71H87.4191ZM93.0699 73.4545V64.4545H95.1324V65.5753H95.1963C95.2815 65.3764 95.4023 65.1847 95.5585 65C95.7176 64.8153 95.9193 64.6648 96.1636 64.5483C96.4108 64.429 96.7062 64.3693 97.05 64.3693C97.5045 64.3693 97.9293 64.4886 98.3241 64.7273C98.7219 64.9659 99.0429 65.3338 99.2872 65.831C99.5315 66.3281 99.6537 66.9616 99.6537 67.7315C99.6537 68.473 99.5358 69.0938 99.3 69.5938C99.067 70.0938 98.7517 70.4688 98.354 70.7188C97.9591 70.9688 97.5202 71.0938 97.0372 71.0938C96.7077 71.0938 96.4222 71.0398 96.1807 70.9318C95.9392 70.8239 95.7361 70.6818 95.5713 70.5057C95.4094 70.3295 95.2844 70.1406 95.1963 69.9389H95.1537V73.4545H93.0699ZM95.1111 67.7273C95.1111 68.0795 95.158 68.3864 95.2517 68.6477C95.3483 68.9091 95.4861 69.1122 95.6651 69.2571C95.8469 69.3991 96.0642 69.4702 96.317 69.4702C96.5727 69.4702 96.7901 69.3991 96.969 69.2571C97.148 69.1122 97.283 68.9091 97.3739 68.6477C97.4676 68.3864 97.5145 68.0795 97.5145 67.7273C97.5145 67.375 97.4676 67.0696 97.3739 66.8111C97.283 66.5526 97.148 66.3523 96.969 66.2102C96.7929 66.0682 96.5756 65.9972 96.317 65.9972C96.0614 65.9972 95.844 66.0668 95.6651 66.206C95.4861 66.3452 95.3483 66.544 95.2517 66.8026C95.158 67.0611 95.1111 67.3693 95.1111 67.7273ZM104.401 71.1236C103.714 71.1236 103.123 70.983 102.628 70.7017C102.137 70.4176 101.758 70.0227 101.491 69.517C101.226 69.0085 101.094 68.419 101.094 67.7486C101.094 67.0753 101.226 66.4858 101.491 65.9801C101.758 65.4716 102.137 65.0767 102.628 64.7955C103.123 64.5114 103.714 64.3693 104.401 64.3693C105.089 64.3693 105.678 64.5114 106.17 64.7955C106.664 65.0767 107.043 65.4716 107.307 65.9801C107.574 66.4858 107.708 67.0753 107.708 67.7486C107.708 68.419 107.574 69.0085 107.307 69.517C107.043 70.0227 106.664 70.4176 106.17 70.7017C105.678 70.983 105.089 71.1236 104.401 71.1236ZM104.414 69.5511C104.664 69.5511 104.875 69.4744 105.049 69.321C105.222 69.1676 105.354 68.9545 105.445 68.6818C105.539 68.4091 105.586 68.0937 105.586 67.7358C105.586 67.3722 105.539 67.054 105.445 66.7812C105.354 66.5085 105.222 66.2955 105.049 66.142C104.875 65.9886 104.664 65.9119 104.414 65.9119C104.155 65.9119 103.937 65.9886 103.758 66.142C103.581 66.2955 103.447 66.5085 103.353 66.7812C103.262 67.054 103.216 67.3722 103.216 67.7358C103.216 68.0937 103.262 68.4091 103.353 68.6818C103.447 68.9545 103.581 69.1676 103.758 69.321C103.937 69.4744 104.155 69.5511 104.414 69.5511ZM109.375 71V64.4545H111.4V65.6477H111.468C111.587 65.2159 111.782 64.8949 112.051 64.6847C112.321 64.4716 112.635 64.3651 112.993 64.3651C113.09 64.3651 113.189 64.3722 113.292 64.3864C113.394 64.3977 113.489 64.4162 113.577 64.4418V66.2528C113.478 66.2187 113.347 66.1918 113.185 66.1719C113.026 66.152 112.884 66.142 112.759 66.142C112.512 66.142 112.289 66.1974 112.09 66.3082C111.894 66.4162 111.739 66.5682 111.625 66.7642C111.515 66.9574 111.459 67.1847 111.459 67.446V71H109.375ZM116.625 71.1108C116.208 71.1108 115.837 71.0412 115.513 70.902C115.192 70.7599 114.938 70.5469 114.75 70.2628C114.566 69.9759 114.473 69.6165 114.473 69.1847C114.473 68.821 114.537 68.5142 114.665 68.2642C114.793 68.0142 114.969 67.8111 115.193 67.6548C115.418 67.4986 115.676 67.3807 115.969 67.3011C116.262 67.2187 116.574 67.1634 116.906 67.1349C117.279 67.1009 117.578 67.0653 117.806 67.0284C118.033 66.9886 118.198 66.9332 118.3 66.8622C118.405 66.7884 118.458 66.6847 118.458 66.5511V66.5298C118.458 66.3111 118.382 66.142 118.232 66.0227C118.081 65.9034 117.878 65.8438 117.622 65.8438C117.347 65.8438 117.125 65.9034 116.958 66.0227C116.79 66.142 116.683 66.3068 116.638 66.517L114.716 66.4489C114.773 66.0511 114.919 65.696 115.155 65.3835C115.394 65.0682 115.72 64.821 116.135 64.642C116.553 64.4602 117.054 64.3693 117.639 64.3693C118.057 64.3693 118.442 64.419 118.794 64.5185C119.147 64.6151 119.453 64.7571 119.715 64.9446C119.976 65.1293 120.178 65.3565 120.32 65.6264C120.465 65.8963 120.537 66.2045 120.537 66.5511V71H118.577V70.0881H118.526C118.409 70.3097 118.26 70.4972 118.078 70.6506C117.899 70.804 117.688 70.919 117.443 70.9957C117.202 71.0724 116.929 71.1108 116.625 71.1108ZM117.269 69.7472C117.493 69.7472 117.695 69.7017 117.874 69.6108C118.056 69.5199 118.2 69.3949 118.308 69.2358C118.416 69.0739 118.47 68.8864 118.47 68.6733V68.0511C118.411 68.0824 118.338 68.1108 118.253 68.1364C118.171 68.1619 118.08 68.1861 117.98 68.2088C117.881 68.2315 117.779 68.2514 117.674 68.2685C117.568 68.2855 117.468 68.3011 117.371 68.3153C117.175 68.3466 117.007 68.3949 116.868 68.4602C116.732 68.5256 116.627 68.6108 116.553 68.7159C116.482 68.8182 116.446 68.9403 116.446 69.0824C116.446 69.2983 116.523 69.4631 116.676 69.5767C116.833 69.6903 117.03 69.7472 117.269 69.7472ZM125.467 71.1236C124.776 71.1236 124.184 70.9815 123.69 70.6974C123.198 70.4134 122.82 70.0185 122.556 69.5128C122.292 69.0043 122.16 68.4162 122.16 67.7486C122.16 67.0781 122.292 66.4901 122.556 65.9844C122.823 65.4759 123.202 65.0795 123.694 64.7955C124.188 64.5114 124.778 64.3693 125.462 64.3693C126.068 64.3693 126.595 64.4787 127.043 64.6974C127.495 64.9162 127.847 65.2259 128.1 65.6264C128.356 66.0241 128.491 66.4915 128.505 67.0284H126.558C126.518 66.6932 126.404 66.4304 126.217 66.2401C126.032 66.0497 125.791 65.9545 125.492 65.9545C125.251 65.9545 125.039 66.0227 124.857 66.1591C124.675 66.2926 124.533 66.4915 124.431 66.7557C124.332 67.017 124.282 67.3409 124.282 67.7273C124.282 68.1136 124.332 68.4403 124.431 68.7074C124.533 68.9716 124.675 69.1719 124.857 69.3082C125.039 69.4418 125.251 69.5085 125.492 69.5085C125.685 69.5085 125.856 69.4673 126.004 69.3849C126.154 69.3026 126.278 69.1818 126.374 69.0227C126.471 68.8608 126.532 68.6648 126.558 68.4347H128.505C128.485 68.9744 128.35 69.446 128.1 69.8494C127.853 70.2528 127.505 70.5668 127.056 70.7912C126.61 71.0128 126.08 71.1236 125.467 71.1236ZM125.058 70.9659H125.893L125.825 71.3494C126.137 71.3949 126.387 71.5071 126.575 71.6861C126.762 71.8679 126.857 72.1037 126.86 72.3935C126.863 72.8366 126.651 73.1861 126.225 73.4418C125.802 73.7003 125.212 73.8295 124.457 73.8295L124.448 72.973C124.837 72.973 125.139 72.929 125.352 72.8409C125.565 72.7528 125.675 72.6193 125.684 72.4403C125.693 72.2756 125.629 72.1435 125.492 72.044C125.356 71.9474 125.144 71.8807 124.857 71.8438L125.058 70.9659ZM132.017 71.1108C131.599 71.1108 131.228 71.0412 130.904 70.902C130.583 70.7599 130.329 70.5469 130.142 70.2628C129.957 69.9759 129.865 69.6165 129.865 69.1847C129.865 68.821 129.929 68.5142 130.056 68.2642C130.184 68.0142 130.36 67.8111 130.585 67.6548C130.809 67.4986 131.068 67.3807 131.36 67.3011C131.653 67.2187 131.965 67.1634 132.298 67.1349C132.67 67.1009 132.97 67.0653 133.197 67.0284C133.424 66.9886 133.589 66.9332 133.691 66.8622C133.796 66.7884 133.849 66.6847 133.849 66.5511V66.5298C133.849 66.3111 133.774 66.142 133.623 66.0227C133.473 65.9034 133.269 65.8438 133.014 65.8438C132.738 65.8438 132.517 65.9034 132.349 66.0227C132.181 66.142 132.075 66.3068 132.029 66.517L130.108 66.4489C130.164 66.0511 130.311 65.696 130.546 65.3835C130.785 65.0682 131.112 64.821 131.527 64.642C131.944 64.4602 132.446 64.3693 133.031 64.3693C133.448 64.3693 133.833 64.419 134.186 64.5185C134.538 64.6151 134.845 64.7571 135.106 64.9446C135.367 65.1293 135.569 65.3565 135.711 65.6264C135.856 65.8963 135.929 66.2045 135.929 66.5511V71H133.968V70.0881H133.917C133.801 70.3097 133.652 70.4972 133.47 70.6506C133.291 70.804 133.079 70.919 132.835 70.9957C132.593 71.0724 132.321 71.1108 132.017 71.1108ZM132.66 69.7472C132.885 69.7472 133.086 69.7017 133.265 69.6108C133.447 69.5199 133.592 69.3949 133.7 69.2358C133.808 69.0739 133.862 68.8864 133.862 68.6733V68.0511C133.802 68.0824 133.73 68.1108 133.644 68.1364C133.562 68.1619 133.471 68.1861 133.372 68.2088C133.272 68.2315 133.17 68.2514 133.065 68.2685C132.96 68.2855 132.859 68.3011 132.762 68.3153C132.566 68.3466 132.399 68.3949 132.26 68.4602C132.123 68.5256 132.018 68.6108 131.944 68.7159C131.873 68.8182 131.838 68.9403 131.838 69.0824C131.838 69.2983 131.914 69.4631 132.068 69.5767C132.224 69.6903 132.421 69.7472 132.66 69.7472ZM131.91 63.6449L130.823 63.6364C130.823 63.0597 130.961 62.6236 131.237 62.3281C131.512 62.0327 131.848 61.8835 132.242 61.8807C132.453 61.8807 132.632 61.9148 132.779 61.983C132.93 62.0483 133.062 62.1264 133.176 62.2173C133.292 62.3054 133.4 62.3835 133.5 62.4517C133.602 62.517 133.71 62.5497 133.823 62.5497C133.985 62.5469 134.105 62.4872 134.181 62.3707C134.261 62.2514 134.302 62.0909 134.305 61.8892L135.375 61.902C135.366 62.473 135.225 62.9091 134.953 63.2102C134.68 63.5085 134.348 63.6591 133.956 63.6619C133.74 63.6648 133.556 63.6321 133.406 63.5639C133.255 63.4957 133.125 63.4176 133.014 63.3295C132.906 63.2415 132.802 63.1648 132.703 63.0994C132.603 63.0312 132.494 62.9972 132.375 62.9972C132.235 62.9972 132.123 63.054 132.038 63.1676C131.953 63.2784 131.91 63.4375 131.91 63.6449ZM140.858 71.1236C140.171 71.1236 139.58 70.983 139.085 70.7017C138.594 70.4176 138.215 70.0227 137.948 69.517C137.683 69.0085 137.551 68.419 137.551 67.7486C137.551 67.0753 137.683 66.4858 137.948 65.9801C138.215 65.4716 138.594 65.0767 139.085 64.7955C139.58 64.5114 140.171 64.3693 140.858 64.3693C141.546 64.3693 142.135 64.5114 142.627 64.7955C143.121 65.0767 143.5 65.4716 143.764 65.9801C144.031 66.4858 144.165 67.0753 144.165 67.7486C144.165 68.419 144.031 69.0085 143.764 69.517C143.5 70.0227 143.121 70.4176 142.627 70.7017C142.135 70.983 141.546 71.1236 140.858 71.1236ZM140.871 69.5511C141.121 69.5511 141.333 69.4744 141.506 69.321C141.679 69.1676 141.811 68.9545 141.902 68.6818C141.996 68.4091 142.043 68.0937 142.043 67.7358C142.043 67.3722 141.996 67.054 141.902 66.7812C141.811 66.5085 141.679 66.2955 141.506 66.142C141.333 65.9886 141.121 65.9119 140.871 65.9119C140.612 65.9119 140.394 65.9886 140.215 66.142C140.038 66.2955 139.904 66.5085 139.81 66.7812C139.719 67.054 139.673 67.3722 139.673 67.7358C139.673 68.0937 139.719 68.4091 139.81 68.6818C139.904 68.9545 140.038 69.1676 140.215 69.321C140.394 69.4744 140.612 69.5511 140.871 69.5511Z" fill="white"/>
<path d="M38.4641 28.9048L39.4318 29.1566L39.239 29.8979L38.4731 29.9048L38.4641 28.9048ZM39.508 26.5303L40.3425 27.0814L40.3372 27.0893L39.508 26.5303ZM43.5517 23.6385L43.8392 24.5963L43.832 24.5985L43.8248 24.6005L43.5517 23.6385ZM51.9566 24.7133L52.5003 23.874L52.5038 23.8763L51.9566 24.7133ZM55.5551 29.1555L54.6402 29.5593L54.6392 29.5569L55.5551 29.1555ZM55.7263 43.4088L54.7977 43.0378L55.7263 43.4088ZM52.2515 47.9574L51.6841 47.134L52.2515 47.9574ZM41.7746 48.6698L41.3588 49.5793L41.3547 49.5774L41.7746 48.6698ZM38.6821 45.9916L39.5359 45.4709L38.6821 45.9916ZM37.601 41.889L37.4734 40.8972L38.5908 40.7533L38.601 41.88L37.601 41.889ZM35.643 42.141L35.652 43.141L35.5153 41.1492L35.643 42.141ZM46.2534 42.0453L47.2533 42.0363L47.2624 43.0363L46.2624 43.0453L46.2534 42.0453ZM46.184 34.3539L46.175 33.3539L47.1749 33.3449L47.184 34.3449L46.184 34.3539ZM27.3708 34.5236L26.3709 34.5326L26.3619 33.5326L27.3618 33.5236L27.3708 34.5236ZM30.0062 50.3101L30.8602 49.7898L30.8622 49.7931L30.0062 50.3101ZM36.882 56.6617L37.3316 55.7685L37.3334 55.7694L36.882 56.6617ZM57.8002 56.0042L57.2958 55.1408L57.8002 56.0042ZM65.1025 48.225L65.9919 48.6821L65.9911 48.6837L65.1025 48.225ZM65.9529 26.7605L65.0229 27.1279L65.0223 27.1263L65.9529 26.7605ZM61.4362 19.7271L62.1395 19.0162L62.1422 19.0188L61.4362 19.7271ZM54.7492 15.398L55.1067 14.4641L55.1085 14.4648L54.7492 15.398ZM39.5331 15.1304L39.8578 16.0762L39.856 16.0768L39.5331 15.1304ZM33.7655 18.2508L34.3916 19.0305L34.3884 19.0331L33.7655 18.2508ZM29.6959 22.9965L30.5661 23.4891L29.6959 22.9965ZM27.7898 29.0011L27.7988 30.0011L26.6743 30.0112L26.7956 28.8932L27.7898 29.0011ZM37.4963 28.653C37.7548 27.6595 38.1459 26.7616 38.6789 25.9712L40.3372 27.0893C39.945 27.6709 39.6401 28.3561 39.4318 29.1566L37.4963 28.653ZM38.6736 25.9792C39.2024 25.1785 39.8566 24.4957 40.6325 23.9355L41.8032 25.5571C41.2243 25.9751 40.7386 26.4816 40.3425 27.0814L38.6736 25.9792ZM40.6325 23.9355C41.4128 23.3722 42.2984 22.9549 43.2786 22.6766L43.8248 24.6005C43.0481 24.8211 42.3778 25.1423 41.8032 25.5571L40.6325 23.9355ZM43.2643 22.6808C44.245 22.3864 45.3049 22.2392 46.4368 22.2289L46.4549 24.2289C45.4846 24.2376 44.6151 24.3635 43.8392 24.5963L43.2643 22.6808ZM46.4368 22.2289C48.7208 22.2083 50.756 22.7443 52.5003 23.874L51.413 25.5527C50.0424 24.6649 48.4037 24.2113 46.4549 24.2289L46.4368 22.2289ZM52.5038 23.8763C54.2339 25.0073 55.5498 26.6521 56.471 28.7541L54.6392 29.5569C53.849 27.7538 52.7659 26.4371 51.4095 25.5504L52.5038 23.8763ZM56.4699 28.7517C57.3948 30.847 57.8501 33.3507 57.8761 36.23L55.8762 36.2481C55.8519 33.5594 55.4266 31.3408 54.6403 29.5593L56.4699 28.7517ZM57.8761 36.23C57.9022 39.1198 57.5075 41.6461 56.6549 43.7798L54.7977 43.0378C55.5287 41.2082 55.9006 38.9546 55.8762 36.2481L57.8761 36.23ZM56.6549 43.7798C55.8014 45.9159 54.5297 47.6018 52.819 48.7808L51.6841 47.134C53.0227 46.2114 54.0676 44.865 54.7977 43.0378L56.6549 43.7798ZM52.819 48.7808C51.102 49.9641 49.0425 50.5418 46.6924 50.563L46.6744 48.5631C48.6992 48.5448 50.3518 48.0521 51.6841 47.134L52.819 48.7808ZM46.6924 50.563C44.6577 50.5814 42.8675 50.2689 41.3588 49.5793L42.1903 47.7603C43.3633 48.2965 44.8456 48.5796 46.6744 48.5631L46.6924 50.563ZM41.3547 49.5774C39.8386 48.8759 38.6483 47.8567 37.8284 46.5123L39.5359 45.4709C40.129 46.4435 41.0003 47.2097 42.1945 47.7622L41.3547 49.5774ZM37.8284 46.5123C37.0135 45.1761 36.6167 43.6256 36.6011 41.898L38.601 41.88C38.6139 43.3057 38.9378 44.4902 39.5359 45.4709L37.8284 46.5123ZM37.7287 42.8808L35.7707 43.1329L35.5153 41.1492L37.4734 40.8972L37.7287 42.8808ZM35.634 41.1411L46.2444 41.0454L46.2624 43.0453L35.652 43.141L35.634 41.1411ZM45.2534 42.0543L45.184 34.3629L47.184 34.3449L47.2533 42.0363L45.2534 42.0543ZM46.193 35.3538L27.3799 35.5235L27.3618 33.5236L46.175 33.3539L46.193 35.3538ZM28.3708 34.5146L28.4229 40.2885L26.423 40.3065L26.3709 34.5326L28.3708 34.5146ZM28.4229 40.2885C28.4568 44.0511 29.2847 47.2038 30.8602 49.7898L29.1522 50.8304C27.3538 47.8784 26.4595 44.356 26.423 40.3065L28.4229 40.2885ZM30.8622 49.7931C32.4369 52.3998 34.5874 54.3872 37.3316 55.7685L36.4324 57.5549C33.3545 56.0057 30.9212 53.7587 29.1503 50.8272L30.8622 49.7931ZM37.3334 55.7694C40.0669 57.1522 43.2282 57.8417 46.843 57.8091L46.8611 59.809C42.9762 59.8441 39.4908 59.1021 36.4306 57.554L37.3334 55.7694ZM46.843 57.8091C50.8563 57.7729 54.33 56.8731 57.2958 55.1408L58.3046 56.8677C54.9964 58.8001 51.1713 59.7702 46.8611 59.809L46.843 57.8091ZM57.2958 55.1408C60.2624 53.408 62.5662 50.9584 64.2139 47.7663L65.9911 48.6837C64.1764 52.1992 61.6121 54.9358 58.3046 56.8677L57.2958 55.1408ZM64.2131 47.7679C65.8557 44.5718 66.6772 40.7534 66.6368 36.2788L68.6368 36.2608C68.6794 40.9904 67.8113 45.1421 65.9919 48.6821L64.2131 47.7679ZM66.6368 36.2788C66.6054 32.7975 66.0598 29.753 65.0229 27.1279L66.883 26.3931C68.0266 29.2883 68.6036 32.5833 68.6368 36.2608L66.6368 36.2788ZM65.0223 27.1263C63.9773 24.4675 62.5439 22.2432 60.7302 20.4353L62.1422 19.0188C64.17 21.0401 65.7478 23.5047 66.8836 26.3947L65.0223 27.1263ZM60.7329 20.4379C58.8953 18.6199 56.7832 17.2529 54.3898 16.3312L55.1085 14.4648C57.7612 15.4863 60.1072 17.0054 62.1395 19.0162L60.7329 20.4379ZM54.3916 16.3319C51.9795 15.4083 49.3802 14.9549 46.5845 14.9802L46.5665 12.9802C49.5945 12.9529 52.4443 13.4447 55.1067 14.4641L54.3916 16.3319ZM46.5845 14.9802C44.1526 15.0021 41.9129 15.3705 39.8578 16.0762L39.2083 14.1846C41.4866 13.4023 43.9418 13.0039 46.5665 12.9802L46.5845 14.9802ZM39.856 16.0768C37.7763 16.7865 35.9581 17.7728 34.3916 19.0305L33.1395 17.471C34.9012 16.0566 36.9281 14.9626 39.2101 14.184L39.856 16.0768ZM34.3884 19.0331C32.808 20.2912 31.5363 21.7755 30.5661 23.4891L28.8257 22.5038C29.9249 20.5623 31.3663 18.8827 33.1427 17.4684L34.3884 19.0331ZM30.5661 23.4891C29.6014 25.1933 29.006 27.063 28.784 29.109L26.7956 28.8932C27.0458 26.5882 27.7211 24.4548 28.8257 22.5038L30.5661 23.4891ZM27.7808 28.0012L38.455 27.9049L38.4731 29.9048L27.7988 30.0011L27.7808 28.0012Z" fill="white" fill-opacity="0.57"/>
</svg>
