<svg width="170" height="34" viewBox="0 0 170 34" fill="none" xmlns="http://www.w3.org/2000/svg">
<path fill-rule="evenodd" clip-rule="evenodd" d="M29.5751 3.21268C28.3473 2.74274 27.0198 2.51002 25.5834 2.52297C24.3314 2.53427 23.1871 2.72378 22.1432 3.08226L22.1413 3.08289C21.0794 3.44524 20.1584 3.94617 19.3685 4.58042L19.3653 4.58298C18.8157 5.02048 18.3415 5.51093 17.9402 6.05545C17.985 6.06961 18.0297 6.08402 18.0742 6.09866C19.1527 6.44728 20.1498 6.92649 21.056 7.54041C21.3533 7.11982 21.7128 6.75656 22.1316 6.45415C22.5938 6.12045 23.114 5.8761 23.6814 5.7142C24.2502 5.54431 24.8575 5.46146 25.4962 5.4557C26.7926 5.444 27.9705 5.74906 28.988 6.40802L28.9915 6.41034C30.0011 7.07031 30.757 8.02365 31.2789 9.21395C31.8041 10.4044 32.0538 11.8058 32.068 13.3854C32.0823 14.9694 31.8665 16.3804 31.3834 17.5893C30.8994 18.8006 30.1683 19.779 29.1691 20.4676C28.2616 21.093 27.2012 21.4211 26.0259 21.4879L25.8773 23.0428C25.8325 23.5116 25.7547 23.9748 25.6453 24.4322L25.7129 24.4318C27.784 24.4131 29.5546 23.9496 31.0565 23.0723C32.5589 22.1948 33.7267 20.9555 34.5665 19.329C35.401 17.7048 35.8281 15.7464 35.8071 13.4198C35.7908 11.6089 35.5071 10.0436 34.979 8.70655L34.9783 8.70495C34.4425 7.34151 33.7122 6.21168 32.7954 5.2975C31.8613 4.37373 30.7902 3.6807 29.5751 3.21268ZM23.619 24.279C23.7515 23.8068 23.8406 23.3313 23.8864 22.8525L21.8757 22.8405L19.8939 22.8286C20.196 23.0349 20.516 23.2231 20.8541 23.3933L20.8559 23.3942C21.6914 23.8168 22.6105 24.1139 23.619 24.279ZM17.9159 23.8293C18.5271 24.3527 19.2068 24.803 19.9537 25.1791C20.8566 25.6358 21.8228 25.9651 22.8483 26.1711C22.3702 27.0648 21.7389 27.8866 20.9545 28.6366C20.0909 29.4548 19.0379 30.1063 17.7954 30.5912C16.5606 31.076 15.1439 31.3184 13.5454 31.3184C11.4394 31.3184 9.55302 30.8563 7.88635 29.9321C6.22726 29.0002 4.91666 27.6442 3.95453 25.8639C2.99241 24.0836 2.51135 21.9169 2.51135 19.3639C2.51135 16.8033 2.99999 14.6328 3.97726 12.8525C4.95453 11.0722 6.2765 9.71994 7.94317 8.7957C9.60984 7.87145 11.4773 7.40933 13.5454 7.40933C14.0353 7.40933 14.5124 7.43314 14.9766 7.48075C14.7726 8.10355 14.6343 8.75256 14.5612 9.42629L14.4399 10.5443L15.5644 10.5341L21.2573 10.4828L21.4445 10.4811C21.718 10.7732 21.9714 11.0853 22.2049 11.4174L15.3229 11.4795L14.3229 11.4885L14.3309 12.3735C14.1251 12.352 13.9125 12.3412 13.6932 12.3412C12.5644 12.3412 11.5909 12.6177 10.7727 13.1707C9.96211 13.7237 9.33711 14.523 8.89772 15.5684C8.4659 16.6139 8.24999 17.879 8.24999 19.3639C8.24999 20.9093 8.46969 22.2048 8.90908 23.2502C9.35605 24.2881 9.98105 25.0722 10.7841 25.6025C11.5947 26.1252 12.553 26.3866 13.6591 26.3866C14.2803 26.3866 14.8447 26.3071 15.3523 26.148C15.8674 25.9889 16.3182 25.7578 16.7045 25.4548C17.0985 25.1442 17.4204 24.7692 17.6704 24.3298C17.7624 24.1702 17.8442 24.0033 17.9159 23.8293ZM17.8743 20.8164L18.2165 20.8185L22.4123 20.8436C21.6128 20.4381 20.967 19.8644 20.5108 19.1164C20.3262 18.8136 20.1787 18.4939 20.0663 18.1593H18.2045H16.6745C16.8819 18.9812 17.1896 19.7191 17.5914 20.3787L17.5934 20.3819C17.6833 20.5308 17.7769 20.6756 17.8743 20.8164ZM14.3491 14.3941L14.3597 15.5679C14.3798 17.7938 14.8719 19.7582 15.8824 21.4176C16.0169 21.6401 16.1583 21.8556 16.3064 22.064L16.2347 22.4724C16.1724 22.827 16.0673 23.1061 15.9376 23.3312L15.9376 23.3312L15.9321 23.3407C15.8091 23.5569 15.657 23.7334 15.4682 23.8827C15.2924 24.0201 15.0655 24.1433 14.7621 24.237L14.7621 24.237L14.7541 24.2395C14.4694 24.3287 14.1106 24.3866 13.6591 24.3866C12.885 24.3866 12.318 24.2093 11.8772 23.9276C11.4577 23.6479 11.0668 23.2007 10.7495 22.4673C10.4452 21.7394 10.25 20.7288 10.25 19.3639C10.25 18.0665 10.4394 17.0775 10.7439 16.3376C11.0565 15.5962 11.4538 15.1282 11.8962 14.8253C12.3376 14.5281 12.9068 14.3412 13.6932 14.3412C13.9386 14.3412 14.1561 14.3604 14.3491 14.3941ZM16.9076 13.4653C17.2475 13.7802 17.5246 14.1516 17.7386 14.5798C17.9735 15.0495 18.1288 15.576 18.2045 16.1593H19.6579L19.6161 15.5503L20.6603 15.4159L21.7778 15.272L21.7801 15.5237L23.8048 15.5055C23.7335 15.038 23.6361 14.5893 23.5126 14.1593C23.4387 13.9022 23.3555 13.6517 23.2629 13.408L16.9076 13.4653ZM22.272 18.1593C22.5335 18.5521 22.908 18.8729 23.4317 19.1156C23.9786 19.3652 24.6968 19.5089 25.6229 19.5006C26.6269 19.4915 27.4134 19.2486 28.0342 18.8208C28.6613 18.3886 29.1656 17.7497 29.5262 16.8472C29.8877 15.9424 30.0807 14.8041 30.0681 13.4034C30.0556 12.014 29.8357 10.8972 29.4487 10.0203L29.4476 10.0179C29.0571 9.12681 28.5344 8.50147 27.8989 8.08554C27.2554 7.66928 26.4745 7.44695 25.5143 7.45561C25.0345 7.45994 24.6152 7.52207 24.2492 7.63193L24.242 7.63407L24.2348 7.63611C23.868 7.74026 23.5608 7.88913 23.3023 8.07571C23.0395 8.26545 22.8198 8.49448 22.6395 8.76747L22.6396 8.7675L22.6342 8.77545C22.6261 8.78752 22.618 8.79971 22.61 8.81201C23.3739 9.56491 24.0166 10.4294 24.5379 11.3964L25.3566 11.389L26.3565 11.38L26.3655 12.38L26.4026 16.4821L26.4116 17.482L26.0256 17.4855L26.0916 18.1593H23.8864H22.272ZM18.7277 8.50551C18.3231 8.31205 17.8987 8.14363 17.4545 8.00024C17.2933 7.94717 17.1301 7.89766 16.9649 7.85174C16.884 8.07052 16.8136 8.29434 16.7537 8.52332L18.7277 8.50551ZM15.856 5.57615C15.1067 5.4641 14.3359 5.40933 13.5454 5.40933C11.1676 5.40933 8.96163 5.94397 6.97323 7.04663C4.95454 8.16609 3.37049 9.80162 2.22404 11.8901C1.04796 14.0326 0.511353 16.5529 0.511353 19.3639C0.511353 22.1638 1.03903 24.6757 2.19504 26.8148C3.32505 28.9057 4.89687 30.5469 6.90696 31.6758L6.90695 31.6759L6.91642 31.6811C8.9102 32.7868 11.1365 33.3184 13.5454 33.3184C15.3434 33.3184 17.0149 33.0459 18.5245 32.4536C19.9777 31.8862 21.2579 31.1042 22.33 30.0885L22.33 30.0885L22.3367 30.0822C23.3558 29.1078 24.1774 28.0094 24.7802 26.7869C24.8411 26.665 24.8997 26.5425 24.9559 26.4195C25.2112 26.43 25.4696 26.4341 25.7309 26.4317C28.099 26.4103 30.221 25.8766 32.0653 24.7993C33.9088 23.7225 35.3373 22.196 36.3441 20.2456L36.3449 20.244C37.1054 18.7644 37.5619 17.1017 37.7319 15.2705C37.9519 16.2918 38.2873 17.2313 38.7379 18.089C39.6186 19.7581 40.8473 21.0436 42.424 21.9456C44.0007 22.8475 45.8295 23.2985 47.9105 23.2985C49.7855 23.2985 51.4439 22.9257 52.8856 22.1799C54.3345 21.4342 55.4709 20.3653 56.2947 18.9733C57.1257 17.5812 57.5412 15.9086 57.5412 13.9555V11.0684H48.1342V14.9143H52.4582C52.4417 15.6536 52.2681 16.2999 51.9375 16.8532C51.5895 17.4356 51.0781 17.8866 50.4034 18.2062C49.7358 18.5187 48.919 18.675 47.9531 18.675C46.8594 18.675 45.929 18.4157 45.1619 17.8973C44.3949 17.3788 43.8089 16.626 43.4041 15.6387C42.9993 14.6515 42.7969 13.4583 42.7969 12.0592C42.7969 10.6671 43.0064 9.48462 43.4254 8.51161C43.8444 7.53149 44.4375 6.78575 45.2045 6.27439C45.9787 5.76303 46.8949 5.50734 47.9531 5.50734C48.4787 5.50734 48.9616 5.57126 49.402 5.69911C49.8423 5.81984 50.2329 6.00095 50.5739 6.24243C50.9148 6.48391 51.2024 6.77865 51.4368 7.12666C51.6712 7.46757 51.8487 7.86175 51.9694 8.30919H57.3068C57.179 7.22254 56.8523 6.22467 56.3267 5.31558C55.8011 4.40649 55.1158 3.62169 54.2706 2.96118C53.4325 2.30067 52.4666 1.78931 51.3729 1.42709C50.2862 1.06487 49.1108 0.883765 47.8466 0.883765C46.3906 0.883765 45.0305 1.13234 43.7663 1.6295C42.5092 2.12666 41.4013 2.8582 40.4425 3.82411C39.4908 4.79001 38.7486 5.96899 38.2159 7.36104C37.8694 8.26199 37.6356 9.24862 37.5145 10.3209C37.3556 9.49511 37.1313 8.71178 36.8394 7.9726C36.2125 6.37766 35.3373 5.00739 34.2061 3.87976L34.2034 3.87715C33.074 2.75974 31.7683 1.9141 30.293 1.34598L30.2912 1.34529C28.8129 0.77925 27.2345 0.507997 25.5654 0.523054C24.1209 0.536084 22.7615 0.755435 21.4945 1.19037C20.2313 1.62151 19.1024 2.22951 18.1179 3.01961C17.2063 3.74569 16.4505 4.59873 15.856 5.57615ZM62.1493 23.0002V1.18206H77.3624V5.46473H67.4228V9.93916H76.5847V14.2325H67.4228V18.7176H77.3624V23.0002H62.1493ZM100.734 1.18206V23.0002H96.2594L87.5769 10.4079H87.4384V23.0002H82.1649V1.18206H86.7033L95.2899 13.7531H95.471V1.18206H100.734ZM110.823 1.18206V23.0002H105.55V1.18206H110.823ZM128.833 1.18206H134.096V15.2552C134.096 16.8816 133.709 18.2985 132.935 19.5059C132.161 20.7062 131.081 21.6366 129.696 22.2971C128.311 22.9505 126.703 23.2772 124.87 23.2772C123.017 23.2772 121.397 22.9505 120.012 22.2971C118.627 21.6366 117.551 20.7062 116.784 19.5059C116.017 18.2985 115.634 16.8816 115.634 15.2552V1.18206H120.907V14.7971C120.907 15.55 121.07 16.2211 121.397 16.8106C121.731 17.4001 122.196 17.8617 122.793 18.1956C123.389 18.5294 124.082 18.6963 124.87 18.6963C125.659 18.6963 126.347 18.5294 126.937 18.1956C127.534 17.8617 127.999 17.4001 128.333 16.8106C128.666 16.2211 128.833 15.55 128.833 14.7971V1.18206ZM150.695 7.72325C150.624 6.942 150.308 6.33476 149.746 5.90152C149.192 5.46118 148.401 5.24101 147.371 5.24101C146.689 5.24101 146.121 5.32979 145.666 5.50734C145.212 5.6849 144.871 5.92993 144.643 6.24243C144.416 6.54783 144.299 6.89939 144.292 7.29712C144.278 7.62382 144.342 7.91146 144.484 8.16004C144.633 8.40862 144.846 8.62879 145.123 8.82055C145.407 9.00521 145.748 9.16857 146.146 9.31061C146.543 9.45266 146.991 9.57695 147.488 9.68348L149.363 10.1096C150.442 10.344 151.394 10.6565 152.218 11.0471C153.049 11.4377 153.745 11.9029 154.306 12.4427C154.874 12.9825 155.304 13.6039 155.595 14.3071C155.886 15.0102 156.036 15.7985 156.043 16.6721C156.036 18.05 155.687 19.2325 154.999 20.2197C154.31 21.2069 153.319 21.9633 152.026 22.4889C150.741 23.0144 149.189 23.2772 147.371 23.2772C145.545 23.2772 143.955 23.0038 142.598 22.4569C141.241 21.91 140.187 21.0791 139.434 19.964C138.681 18.849 138.294 17.4392 138.273 15.7346H143.322C143.365 16.4377 143.553 17.0237 143.887 17.4924C144.221 17.9612 144.679 18.3163 145.261 18.5578C145.851 18.7992 146.533 18.92 147.307 18.92C148.017 18.92 148.621 18.8241 149.118 18.6323C149.622 18.4406 150.009 18.1742 150.279 17.8333C150.549 17.4924 150.687 17.1018 150.695 16.6615C150.687 16.2495 150.56 15.898 150.311 15.6068C150.062 15.3085 149.679 15.0528 149.161 14.8397C148.649 14.6196 147.996 14.4171 147.2 14.2325L144.92 13.6998C143.031 13.2666 141.543 12.567 140.457 11.6011C139.37 10.6281 138.83 9.31416 138.837 7.65933C138.83 6.3099 139.192 5.12737 139.924 4.11175C140.656 3.09612 141.668 2.30422 142.96 1.73604C144.253 1.16786 145.727 0.883765 147.381 0.883765C149.072 0.883765 150.538 1.17141 151.781 1.74669C153.031 2.31487 154.001 3.11388 154.69 4.14371C155.379 5.17354 155.73 6.36672 155.744 7.72325H150.695ZM157.25 2.32411V1.18206H162.168V2.32411H160.403V7.00024H159.017V2.32411H157.25ZM163.254 1.18206H164.996L166.473 4.78433H166.541L168.019 1.18206H169.76V7.00024H168.391V3.42638H168.342L166.945 6.96331H166.07L164.672 3.40649H164.624V7.00024H163.254V1.18206ZM42.3011 28.29H43.7216C43.6875 27.9415 43.5994 27.6319 43.4574 27.361C43.3153 27.0902 43.1307 26.862 42.9034 26.6764C42.6761 26.4889 42.4129 26.3468 42.1136 26.2502C41.8144 26.1518 41.4886 26.1025 41.1364 26.1025C40.6193 26.1025 40.1525 26.218 39.7358 26.4491C39.3191 26.6802 38.9886 27.0182 38.7443 27.4633C38.5 27.9084 38.3778 28.451 38.3778 29.0912C38.3778 29.7294 38.4981 30.2711 38.7386 30.7162C38.9792 31.1612 39.3068 31.5002 39.7216 31.7332C40.1382 31.9643 40.6098 32.0798 41.1364 32.0798C41.536 32.0798 41.8901 32.0192 42.1989 31.898C42.5095 31.7768 42.7727 31.6139 42.9886 31.4093C43.2045 31.2029 43.374 30.9747 43.4971 30.7247C43.6221 30.4747 43.697 30.2209 43.7216 29.9633L42.3011 29.9548C42.2765 30.0949 42.232 30.2209 42.1676 30.3326C42.1051 30.4425 42.0246 30.5362 41.9261 30.6139C41.8295 30.6896 41.7168 30.7474 41.5881 30.7872C41.4612 30.8269 41.3201 30.8468 41.1648 30.8468C40.8882 30.8468 40.6487 30.7815 40.446 30.6508C40.2453 30.5182 40.089 30.3222 39.9773 30.0627C39.8674 29.8014 39.8125 29.4775 39.8125 29.0912C39.8125 28.7199 39.8665 28.4037 39.9744 28.1423C40.0843 27.8809 40.2405 27.6811 40.4432 27.5429C40.6477 27.4046 40.8911 27.3355 41.1733 27.3355C41.3324 27.3355 41.4773 27.3582 41.6079 27.4037C41.7405 27.4472 41.8551 27.5107 41.9517 27.594C42.0483 27.6773 42.1259 27.7777 42.1846 27.8951C42.2434 28.0126 42.2822 28.1442 42.3011 28.29ZM45.7814 31.8014C46.1109 31.9889 46.5049 32.0826 46.9632 32.0826C47.4215 32.0826 47.8145 31.9889 48.1422 31.8014C48.4717 31.612 48.7246 31.3487 48.9007 31.0116C49.0787 30.6726 49.1677 30.2796 49.1677 29.8326C49.1677 29.3838 49.0787 28.9908 48.9007 28.6537C48.7246 28.3146 48.4717 28.0514 48.1422 27.8639C47.8145 27.6745 47.4215 27.5798 46.9632 27.5798C46.5049 27.5798 46.1109 27.6745 45.7814 27.8639C45.4537 28.0514 45.2009 28.3146 45.0229 28.6537C44.8467 28.9908 44.7587 29.3838 44.7587 29.8326C44.7587 30.2796 44.8467 30.6726 45.0229 31.0116C45.2009 31.3487 45.4537 31.612 45.7814 31.8014ZM47.395 30.8809C47.2795 30.9832 47.1384 31.0343 46.9717 31.0343C46.7994 31.0343 46.6535 30.9832 46.5342 30.8809C46.4168 30.7787 46.3268 30.6366 46.2643 30.4548C46.2037 30.273 46.1734 30.0627 46.1734 29.8241C46.1734 29.5817 46.2037 29.3696 46.2643 29.1877C46.3268 29.0059 46.4168 28.8639 46.5342 28.7616C46.6535 28.6593 46.7994 28.6082 46.9717 28.6082C47.1384 28.6082 47.2795 28.6593 47.395 28.7616C47.5105 28.8639 47.5986 29.0059 47.6592 29.1877C47.7217 29.3696 47.753 29.5817 47.753 29.8241C47.753 30.0627 47.7217 30.273 47.6592 30.4548C47.5986 30.6366 47.5105 30.7787 47.395 30.8809ZM50.2794 27.6366V32.0002H51.6686V29.6309C51.6686 29.4567 51.7055 29.3052 51.7794 29.1764C51.8551 29.0457 51.9584 28.9444 52.0891 28.8724C52.2216 28.7985 52.3703 28.7616 52.5351 28.7616C52.6184 28.7616 52.7131 28.7682 52.8192 28.7815C52.9271 28.7948 53.0142 28.8127 53.0805 28.8355V27.6281C53.0218 27.611 52.9584 27.5987 52.8902 27.5912C52.822 27.5817 52.7557 27.5769 52.6913 27.5769C52.4527 27.5769 52.2434 27.648 52.0635 27.79C51.8836 27.9302 51.7538 28.1442 51.6743 28.4321H51.6288V27.6366H50.2794ZM54.0466 27.6366V33.6366H55.4358V31.2929H55.4642C55.5229 31.4273 55.6062 31.5533 55.7142 31.6707C55.824 31.7881 55.9595 31.8828 56.1204 31.9548C56.2814 32.0268 56.4718 32.0627 56.6915 32.0627C57.0134 32.0627 57.306 31.9794 57.5693 31.8127C57.8345 31.6461 58.0447 31.3961 58.2 31.0627C58.3572 30.7294 58.4358 30.3156 58.4358 29.8213C58.4358 29.308 58.3543 28.8857 58.1915 28.5542C58.0286 28.2228 57.8146 27.9775 57.5494 27.8184C57.2862 27.6593 57.003 27.5798 56.7 27.5798C56.4708 27.5798 56.2739 27.6196 56.1091 27.6991C55.9462 27.7768 55.8117 27.8771 55.7057 28.0002C55.6015 28.1233 55.521 28.2512 55.4642 28.3838H55.4216V27.6366H54.0466ZM55.5011 30.4321C55.4386 30.2578 55.4074 30.0533 55.4074 29.8184C55.4074 29.5798 55.4386 29.3743 55.5011 29.2019C55.5655 29.0296 55.6574 28.897 55.7767 28.8042C55.896 28.7114 56.0409 28.665 56.2114 28.665C56.3837 28.665 56.5286 28.7124 56.646 28.8071C56.7653 28.9018 56.8553 29.0353 56.9159 29.2076C56.9784 29.38 57.0096 29.5836 57.0096 29.8184C57.0096 30.0533 56.9784 30.2578 56.9159 30.4321C56.8553 30.6063 56.7653 30.7417 56.646 30.8383C56.5267 30.933 56.3818 30.9804 56.2114 30.9804C56.0428 30.9804 55.8979 30.933 55.7767 30.8383C55.6574 30.7417 55.5655 30.6063 55.5011 30.4321ZM60.4189 31.8014C60.7484 31.9889 61.1424 32.0826 61.6007 32.0826C62.059 32.0826 62.452 31.9889 62.7797 31.8014C63.1092 31.612 63.3621 31.3487 63.5382 31.0116C63.7162 30.6726 63.8052 30.2796 63.8052 29.8326C63.8052 29.3838 63.7162 28.9908 63.5382 28.6537C63.3621 28.3146 63.1092 28.0514 62.7797 27.8639C62.452 27.6745 62.059 27.5798 61.6007 27.5798C61.1424 27.5798 60.7484 27.6745 60.4189 27.8639C60.0912 28.0514 59.8384 28.3146 59.6604 28.6537C59.4842 28.9908 59.3962 29.3838 59.3962 29.8326C59.3962 30.2796 59.4842 30.6726 59.6604 31.0116C59.8384 31.3487 60.0912 31.612 60.4189 31.8014ZM62.0325 30.8809C61.917 30.9832 61.7759 31.0343 61.6092 31.0343C61.4369 31.0343 61.291 30.9832 61.1717 30.8809C61.0543 30.7787 60.9643 30.6366 60.9018 30.4548C60.8412 30.273 60.8109 30.0627 60.8109 29.8241C60.8109 29.5817 60.8412 29.3696 60.9018 29.1877C60.9643 29.0059 61.0543 28.8639 61.1717 28.7616C61.291 28.6593 61.4369 28.6082 61.6092 28.6082C61.7759 28.6082 61.917 28.6593 62.0325 28.7616C62.148 28.8639 62.2361 29.0059 62.2967 29.1877C62.3592 29.3696 62.3905 29.5817 62.3905 29.8241C62.3905 30.0627 62.3592 30.273 62.2967 30.4548C62.2361 30.6366 62.148 30.7787 62.0325 30.8809ZM66.2663 27.6366H64.9169V32.0002H66.3061V29.6309C66.3061 29.4567 66.343 29.3052 66.4169 29.1764C66.4927 29.0457 66.5959 28.9444 66.7265 28.8724C66.8591 28.7985 67.0078 28.7616 67.1726 28.7616C67.2559 28.7616 67.3506 28.7682 67.4567 28.7815C67.5646 28.7948 67.6517 28.8127 67.718 28.8355V27.6281C67.6593 27.611 67.5959 27.5987 67.5277 27.5912C67.4595 27.5817 67.3932 27.5769 67.3288 27.5769C67.0902 27.5769 66.8809 27.648 66.701 27.79C66.5211 27.9302 66.3913 28.1442 66.3118 28.4321H66.2663V27.6366ZM69.0087 31.9349C69.2246 32.0277 69.4717 32.0741 69.7501 32.0741C69.9528 32.0741 70.1346 32.0485 70.2956 31.9974C70.4585 31.9463 70.5996 31.8696 70.7189 31.7673C70.8401 31.665 70.9395 31.54 71.0172 31.3923H71.0513V32.0002H72.3581V29.0343C72.3581 28.8033 72.3098 28.5978 72.2132 28.4179C72.1185 28.2379 71.984 28.0864 71.8098 27.9633C71.6355 27.8383 71.431 27.7436 71.1962 27.6792C70.9613 27.6129 70.7047 27.5798 70.4263 27.5798C70.0361 27.5798 69.7018 27.6404 69.4234 27.7616C69.1469 27.8809 68.9291 28.0457 68.77 28.2559C68.6128 28.4643 68.5153 28.701 68.4774 28.9662L69.7587 29.0116C69.789 28.8715 69.86 28.7616 69.9717 28.6821C70.0835 28.6025 70.2312 28.5627 70.4149 28.5627C70.5854 28.5627 70.7208 28.6025 70.8212 28.6821C70.9215 28.7616 70.9717 28.8743 70.9717 29.0201V29.0343C70.9717 29.1233 70.9367 29.1925 70.8666 29.2417C70.7984 29.2891 70.6886 29.326 70.5371 29.3525C70.3855 29.3771 70.1857 29.4008 69.9376 29.4235C69.716 29.4425 69.5077 29.4794 69.3126 29.5343C69.1176 29.5874 68.9452 29.666 68.7956 29.7701C68.646 29.8743 68.5285 30.0097 68.4433 30.1764C68.3581 30.343 68.3155 30.5476 68.3155 30.79C68.3155 31.0779 68.377 31.3175 68.5001 31.5088C68.6251 31.6982 68.7946 31.8402 69.0087 31.9349ZM70.5825 31.0741C70.4632 31.1347 70.3287 31.165 70.1791 31.165C70.02 31.165 69.8884 31.1271 69.7842 31.0514C69.6819 30.9756 69.6308 30.8658 69.6308 30.7218C69.6308 30.6271 69.6545 30.5457 69.7018 30.4775C69.7511 30.4074 69.8212 30.3506 69.9121 30.3071C70.0049 30.2635 70.1166 30.2313 70.2473 30.2105C70.3117 30.201 70.3789 30.1906 70.449 30.1792C70.5191 30.1679 70.5872 30.1546 70.6535 30.1394C70.7198 30.1243 70.7804 30.1082 70.8354 30.0912C70.8922 30.0741 70.9405 30.0552 70.9802 30.0343V30.4491C70.9802 30.5912 70.9443 30.7162 70.8723 30.8241C70.8003 30.9302 70.7037 31.0135 70.5825 31.0741ZM75.3509 32.0689C75.014 32.0365 74.717 31.9464 74.4598 31.7985C74.1321 31.6091 73.8802 31.3459 73.7041 31.0088C73.528 30.6698 73.4399 30.2777 73.4399 29.8326C73.4399 29.3857 73.528 28.9936 73.7041 28.6565C73.8821 28.3175 74.135 28.0533 74.4626 27.8639C74.7922 27.6745 75.1852 27.5798 75.6416 27.5798C76.045 27.5798 76.3963 27.6527 76.6956 27.7985C76.9967 27.9444 77.2316 28.1508 77.4001 28.4179C77.5706 28.683 77.6605 28.9946 77.67 29.3525H76.3717C76.3452 29.129 76.2694 28.9538 76.1444 28.8269C76.0213 28.7001 75.8604 28.6366 75.6615 28.6366C75.5005 28.6366 75.3594 28.6821 75.2382 28.773C75.117 28.862 75.0223 28.9946 74.9541 29.1707C74.8878 29.3449 74.8547 29.5608 74.8547 29.8184C74.8547 30.076 74.8878 30.2938 74.9541 30.4718C75.0223 30.648 75.117 30.7815 75.2382 30.8724C75.3594 30.9614 75.5005 31.0059 75.6615 31.0059C75.7903 31.0059 75.9039 30.9785 76.0024 30.9235C76.1028 30.8686 76.1852 30.7881 76.2496 30.6821C76.314 30.5741 76.3547 30.4434 76.3717 30.29H77.67C77.6568 30.6499 77.5668 30.9643 77.4001 31.2332C77.2354 31.5021 77.0033 31.7114 76.7041 31.861C76.4736 31.9756 76.2095 32.0457 75.9118 32.0714L75.8831 32.2332C76.0914 32.2635 76.2581 32.3383 76.3831 32.4576C76.5081 32.5788 76.5715 32.736 76.5734 32.9292C76.5753 33.2247 76.4342 33.4576 76.1501 33.6281C75.8679 33.8004 75.4749 33.8866 74.9712 33.8866L74.9655 33.3156C75.2249 33.3156 75.4257 33.2862 75.5677 33.2275C75.7098 33.1688 75.7837 33.0798 75.7893 32.9605C75.795 32.8506 75.7524 32.7626 75.6615 32.6963C75.5706 32.6319 75.4295 32.5874 75.2382 32.5627L75.3509 32.0689ZM79.2696 31.9349C79.4855 32.0277 79.7327 32.0741 80.0111 32.0741C80.2137 32.0741 80.3955 32.0485 80.5565 31.9974C80.7194 31.9463 80.8605 31.8696 80.9798 31.7673C81.101 31.665 81.2005 31.54 81.2781 31.3923H81.3122V32.0002H82.619V29.0343C82.619 28.8033 82.5707 28.5978 82.4741 28.4179C82.3794 28.2379 82.245 28.0864 82.0707 27.9633C81.8965 27.8383 81.6919 27.7436 81.4571 27.6792C81.2222 27.6129 80.9656 27.5798 80.6872 27.5798C80.2971 27.5798 79.9628 27.6404 79.6844 27.7616C79.4079 27.8809 79.19 28.0457 79.031 28.2559C78.8738 28.4643 78.7762 28.701 78.7383 28.9662L80.0196 29.0116C80.0499 28.8715 80.1209 28.7616 80.2327 28.6821C80.3444 28.6025 80.4921 28.5627 80.6758 28.5627C80.8463 28.5627 80.9817 28.6025 81.0821 28.6821C81.1825 28.7616 81.2327 28.8743 81.2327 29.0201V29.0343C81.2327 29.1233 81.1976 29.1925 81.1275 29.2417C81.0594 29.2891 80.9495 29.326 80.798 29.3525C80.6465 29.3771 80.4467 29.4008 80.1986 29.4235C79.977 29.4425 79.7686 29.4794 79.5736 29.5343C79.3785 29.5874 79.2061 29.666 79.0565 29.7701C78.9069 29.8743 78.7895 30.0097 78.7043 30.1764C78.619 30.343 78.5764 30.5476 78.5764 30.79C78.5764 31.0779 78.638 31.3175 78.7611 31.5088C78.8861 31.6982 79.0556 31.8402 79.2696 31.9349ZM80.8435 31.0741C80.7241 31.1347 80.5897 31.165 80.44 31.165C80.281 31.165 80.1493 31.1271 80.0452 31.0514C79.9429 30.9756 79.8918 30.8658 79.8918 30.7218C79.8918 30.6271 79.9154 30.5457 79.9628 30.4775C80.012 30.4074 80.0821 30.3506 80.173 30.3071C80.2658 30.2635 80.3775 30.2313 80.5082 30.2105C80.5726 30.201 80.6399 30.1906 80.7099 30.1792C80.78 30.1679 80.8482 30.1546 80.9145 30.1394C80.9808 30.1243 81.0414 30.1082 81.0963 30.0912C81.1531 30.0741 81.2014 30.0552 81.2412 30.0343V30.4491C81.2412 30.5912 81.2052 30.7162 81.1332 30.8241C81.0613 30.9302 80.9647 31.0135 80.8435 31.0741ZM79.2156 27.0912L79.94 27.0968C79.94 26.9586 79.9685 26.8525 80.0253 26.7787C80.0821 26.7029 80.1569 26.665 80.2497 26.665C80.3293 26.665 80.4022 26.6877 80.4685 26.7332C80.5347 26.7768 80.6039 26.8279 80.6758 26.8866C80.7497 26.9453 80.8368 26.9974 80.9372 27.0429C81.0376 27.0883 81.1597 27.1101 81.3037 27.1082C81.565 27.1063 81.7866 27.0059 81.9685 26.8071C82.1503 26.6063 82.244 26.3156 82.2497 25.9349L81.5366 25.9264C81.5347 26.0608 81.5073 26.1679 81.4543 26.2474C81.4031 26.3251 81.3236 26.3648 81.2156 26.3667C81.1399 26.3667 81.0679 26.3449 80.9997 26.3014C80.9334 26.2559 80.8615 26.2038 80.7838 26.1451C80.708 26.0845 80.62 26.0324 80.5196 25.9889C80.4211 25.9434 80.3018 25.9207 80.1616 25.9207C79.8984 25.9226 79.6749 26.022 79.4912 26.219C79.3075 26.416 79.2156 26.7067 79.2156 27.0912ZM84.7236 31.8014C85.0531 31.9889 85.4471 32.0826 85.9054 32.0826C86.3637 32.0826 86.7567 31.9889 87.0844 31.8014C87.4139 31.612 87.6667 31.3487 87.8429 31.0116C88.0209 30.6726 88.1099 30.2796 88.1099 29.8326C88.1099 29.3838 88.0209 28.9908 87.8429 28.6537C87.6667 28.3146 87.4139 28.0514 87.0844 27.8639C86.7567 27.6745 86.3637 27.5798 85.9054 27.5798C85.4471 27.5798 85.0531 27.6745 84.7236 27.8639C84.3959 28.0514 84.1431 28.3146 83.965 28.6537C83.7889 28.9908 83.7008 29.3838 83.7008 29.8326C83.7008 30.2796 83.7889 30.6726 83.965 31.0116C84.1431 31.3487 84.3959 31.612 84.7236 31.8014ZM86.3372 30.8809C86.2217 30.9832 86.0806 31.0343 85.9139 31.0343C85.7416 31.0343 85.5957 30.9832 85.4764 30.8809C85.359 30.7787 85.269 30.6366 85.2065 30.4548C85.1459 30.273 85.1156 30.0627 85.1156 29.8241C85.1156 29.5817 85.1459 29.3696 85.2065 29.1877C85.269 29.0059 85.359 28.8639 85.4764 28.7616C85.5957 28.6593 85.7416 28.6082 85.9139 28.6082C86.0806 28.6082 86.2217 28.6593 86.3372 28.7616C86.4527 28.8639 86.5408 29.0059 86.6014 29.1877C86.6639 29.3696 86.6952 29.5817 86.6952 29.8241C86.6952 30.0627 86.6639 30.273 86.6014 30.4548C86.5408 30.6366 86.4527 30.7787 86.3372 30.8809Z" fill="#FF8A00"/>
</svg>
