<svg width="328" height="62" viewBox="0 0 328 62" fill="none" xmlns="http://www.w3.org/2000/svg">
<path fill-rule="evenodd" clip-rule="evenodd" d="M54.3906 4.33142C51.9787 3.40808 49.3797 2.95479 46.5844 2.98C44.1525 3.00194 41.9127 3.37038 39.8576 4.07605L39.8558 4.07668C37.7761 4.7863 35.958 5.77262 34.3914 7.03037L34.3882 7.03293C32.8079 8.29109 31.5361 9.77532 30.566 11.489C30.2077 12.1217 29.9004 12.7773 29.6443 13.4562C30.2644 13.6043 30.8737 13.7766 31.4719 13.9733C33.0184 14.4729 34.46 15.1239 35.7914 15.9287L37.72 15.9113C37.9629 15.2098 38.2803 14.5628 38.676 13.9751C39.2044 13.1761 39.8577 12.4946 40.6323 11.9354C41.4107 11.3734 42.2939 10.9568 43.2712 10.6785C44.25 10.3855 45.3075 10.239 46.4367 10.2288C48.7207 10.2082 50.7558 10.7442 52.5001 11.8739L52.5036 11.8762C54.2334 13.0069 55.5491 14.6513 56.4703 16.7528C57.3948 18.8478 57.85 21.3511 57.8759 24.2299C57.902 27.1197 57.5073 29.646 56.6547 31.7797C55.8012 33.9158 54.5295 35.6017 52.8188 36.7806C51.1018 37.9639 49.0423 38.5417 46.6923 38.5629C44.6575 38.5812 42.8673 38.2688 41.3587 37.5791L41.3545 37.5772C39.8384 36.8757 38.6481 35.8565 37.8282 34.5121C37.569 34.0871 37.3521 33.6404 37.1763 33.1731H32.2585H30.5014L30.2751 31.4307C30.1584 30.5322 29.9252 29.7642 29.596 29.1059C29.2883 28.4905 28.8957 27.9743 28.416 27.542L28.4227 28.2883C28.4566 32.051 29.2845 35.2036 30.86 37.7897L30.862 37.7929C31.7654 39.2883 32.8582 40.5799 34.144 41.6702L42.9239 41.7229L45.1109 41.736L44.9028 43.9132C44.8444 44.5246 44.7528 45.1318 44.6287 45.7345C45.347 45.7909 46.0849 45.8158 46.8428 45.809C50.8562 45.7728 54.3298 44.873 57.2957 43.1406C60.262 41.408 62.5657 38.9586 64.2133 35.7669C65.8557 32.571 66.677 28.7529 66.6367 24.2787C66.6053 20.7974 66.0596 17.7529 65.0227 15.1277L65.0221 15.1261C63.9773 12.4679 62.5443 10.2439 60.7312 8.43628C58.8942 6.6192 56.7829 5.25284 54.3906 4.33142ZM44.1052 47.6968C45 47.7802 45.9187 47.8174 46.8609 47.8089C51.1711 47.77 54.9962 46.7999 58.3044 44.8676C61.6119 42.9356 64.1762 40.1991 65.9909 36.6835L65.9917 36.682C67.8112 33.1419 68.6792 28.9903 68.6366 24.2606C68.6034 20.5834 68.0265 17.2886 66.8831 14.3936C65.7473 11.504 64.1696 9.03973 62.142 7.01867L62.1393 7.01605C60.107 5.00523 57.7611 3.48618 55.1083 2.46465L55.1065 2.46396C52.4441 1.44457 49.5943 0.952768 46.5663 0.980082C43.9419 1.00376 41.4869 1.40206 39.2088 2.18424C36.9278 2.96267 34.9017 4.05609 33.1406 5.46975C31.3651 6.88372 29.9243 8.56279 28.8255 10.5036C28.3595 11.3267 27.9699 12.1823 27.6564 13.0695C26.3235 12.8669 24.9449 12.7669 23.5227 12.7669C19.3352 12.7669 15.4952 13.7059 12.0485 15.6173C8.57144 17.5454 5.83067 20.3642 3.82911 24.0104C1.79791 27.7107 0.833746 32.1302 0.833746 37.1817C0.833746 42.2155 1.78236 46.6232 3.78021 50.32C5.75208 53.9688 8.47068 56.7965 11.9325 58.7408L11.9419 58.7461C15.3941 60.6604 19.2709 61.5964 23.5227 61.5964C26.7192 61.5964 29.6304 61.1118 32.2204 60.0952C34.7608 59.1036 36.9624 57.7515 38.7902 56.0199L38.7969 56.0136C40.5715 54.3168 41.9863 52.4198 43.02 50.3225C43.4519 49.458 43.8143 48.5826 44.1052 47.6968ZM42.6364 45.4891C42.7635 44.903 42.8553 44.3143 42.9119 43.7229L40.9027 43.7108L37.1747 43.6884C37.2267 43.7153 37.279 43.7419 37.3314 43.7683L37.3332 43.7692C38.9496 44.5869 40.7156 45.1622 42.6364 45.4891ZM33.43 43.666C34.3506 44.381 35.3513 45.0106 36.4314 45.5544C38.179 46.4383 40.0654 47.0594 42.0856 47.423C41.8475 48.0966 41.5619 48.7666 41.2286 49.4331C40.3053 51.3081 39.034 53.0197 37.4147 54.568C35.7954 56.1021 33.821 57.3237 31.4914 58.2328C29.1761 59.1419 26.5198 59.5964 23.5227 59.5964C19.5738 59.5964 16.0369 58.73 12.9119 56.997C9.80108 55.2498 7.34369 52.7072 5.53971 49.3692C3.73573 46.0311 2.83375 41.9686 2.83375 37.1817C2.83375 32.3805 3.74994 28.3109 5.58233 24.9729C7.41471 21.6348 9.8934 19.0993 13.0184 17.3663C16.1434 15.6334 19.6448 14.7669 23.5227 14.7669C24.7597 14.7669 25.9531 14.8478 27.1029 15.0098C26.9675 15.6241 26.865 16.2519 26.7954 16.8931L26.6741 18.0111L27.7986 18.0009L35.2252 17.9339C35.7646 18.2843 36.2814 18.6632 36.7755 19.0709C37.634 19.772 38.4115 20.5542 39.1079 21.4175L27.3616 21.5235L26.3617 21.5325L26.3707 22.5324L26.3868 24.3225C25.5887 24.1169 24.7263 24.014 23.7997 24.014C21.6832 24.014 19.8579 24.5325 18.3238 25.5694C16.8039 26.6064 15.632 28.105 14.8082 30.0652C13.9985 32.0254 13.5937 34.3976 13.5937 37.1817C13.5937 40.0794 14.0056 42.5084 14.8295 44.4686C15.6676 46.4146 16.8394 47.8848 18.3451 48.8791C19.865 49.8592 21.6619 50.3493 23.7357 50.3493C24.9005 50.3493 25.9587 50.2001 26.9104 49.9018C27.8764 49.6035 28.7215 49.1703 29.446 48.6021C30.1846 48.0197 30.7883 47.3166 31.257 46.4927C31.74 45.6547 32.0738 44.7101 32.2585 43.6589L33.43 43.666ZM31.2521 41.6529C30.4711 40.7955 29.7705 39.8538 29.1509 38.8283C27.3532 35.8768 26.4593 32.355 26.4228 28.3064L26.4057 26.4155L26.4026 26.4144C25.6627 26.1571 24.8021 26.014 23.7997 26.014C22.0254 26.014 20.6046 26.443 19.4475 27.2239C18.2961 28.0105 17.3517 29.1776 16.6543 30.8345C15.9721 32.4889 15.5937 34.5847 15.5937 37.1817C15.5937 39.8995 15.9814 42.0435 16.6699 43.6857C17.3789 45.3285 18.317 46.461 19.4382 47.2042C20.5879 47.9429 21.9931 48.3493 23.7357 48.3493C24.7308 48.3493 25.5835 48.2218 26.3123 47.9934L26.3203 47.9909C27.0748 47.7579 27.6963 47.4323 28.2101 47.0297C28.7434 46.6087 29.1771 46.1042 29.5187 45.5037L29.5242 45.4941C29.8793 44.8779 30.1402 44.158 30.2886 43.3129L30.581 41.6488L31.2521 41.6529ZM28.3939 25.0967C28.8452 25.3415 29.2598 25.6269 29.6377 25.953C30.3622 26.578 30.9445 27.3308 31.3849 28.2115C31.8252 29.0922 32.1164 30.0794 32.2585 31.1731H36.6864L36.6811 31.1316L35.6518 31.1408L35.5152 29.1491L37.4732 28.897L38.5907 28.7532L38.5939 29.1142L42.6081 29.078C42.2613 27.3012 41.702 25.6771 40.9303 24.2058C40.7873 23.9332 40.6386 23.6663 40.4841 23.4052L28.3796 23.5144L28.3939 25.0967ZM42.7576 23.3847C43.6517 25.1178 44.2742 27.0141 44.6392 29.0597L45.2442 29.0542L45.1929 23.3627L42.7576 23.3847ZM42.9021 31.0754L38.6976 31.1134L38.7071 31.1731H40.9014H42.9119L42.9021 31.0754ZM39.366 33.1731H42.9119H45.1171L44.9101 31.0573L46.2622 31.0451L47.2622 31.0361L47.2531 30.0361L47.1838 22.3447L47.1747 21.3447L46.1748 21.3538L41.5771 21.3952C40.6956 20.0947 39.6678 18.9292 38.4938 17.9044L39.2388 17.8977L39.4317 17.1565C39.64 16.3559 39.9448 15.6708 40.337 15.0892L40.3423 15.0812L40.3423 15.0812C40.7384 14.4814 41.2241 13.9749 41.803 13.5569C42.3776 13.1421 43.0479 12.8209 43.8247 12.6004L43.8318 12.5983L43.839 12.5962C44.6149 12.3633 45.4845 12.2375 46.4547 12.2287C48.4027 12.2111 50.0408 12.6644 51.4111 13.5514C52.7667 14.4381 53.8491 15.7544 54.639 17.5567L54.6401 17.5592C55.4264 19.3406 55.8518 21.5593 55.876 24.2479C55.9004 26.9544 55.5285 29.208 54.7975 31.0376C54.0674 32.8648 53.0225 34.2113 51.6839 35.1338C50.3516 36.052 48.699 36.5447 46.6742 36.5629C44.8465 36.5794 43.3648 36.2967 42.1921 35.7611C40.9991 35.2086 40.1284 34.4427 39.5357 33.4708C39.4764 33.3736 39.4198 33.2744 39.366 33.1731ZM31.1417 15.9707C31.0457 15.9381 30.9492 15.9061 30.8522 15.8748C30.2716 15.6838 29.6777 15.5174 29.0704 15.3757C29.0247 15.5788 28.983 15.7837 28.9455 15.9905L31.1417 15.9707ZM97.9389 17.6177C97.6974 16.7229 97.3423 15.9345 96.8735 15.2527C96.4048 14.5567 95.8295 13.9672 95.1477 13.4842C94.4659 13.0013 93.6846 12.639 92.8039 12.3976C91.9232 12.1419 90.9573 12.014 89.9062 12.014C87.7897 12.014 85.9573 12.5254 84.409 13.5481C82.8749 14.5709 81.6889 16.0623 80.8508 18.0226C80.0127 19.9686 79.5937 22.3336 79.5937 25.1177C79.5937 27.916 79.9985 30.3024 80.8082 32.2768C81.6178 34.2513 82.7897 35.7569 84.3238 36.7939C85.8579 37.8308 87.7187 38.3493 89.9062 38.3493C91.838 38.3493 93.4715 38.0368 94.8068 37.4118C96.1562 36.7726 97.1789 35.8706 97.8749 34.7058C98.5362 33.5991 98.8834 32.3065 98.9164 30.828H90.2684V23.1362H109.082V28.9104C109.082 32.8166 108.251 36.1618 106.589 38.9459C104.942 41.73 102.669 43.8677 99.7712 45.3592C96.8877 46.8507 93.571 47.5964 89.821 47.5964C85.659 47.5964 82.0014 46.6944 78.848 44.8905C75.6945 43.0865 73.2372 40.5155 71.4758 37.1774C69.7144 33.8251 68.8337 29.8479 68.8337 25.2456C68.8337 21.666 69.3664 18.4913 70.4318 15.7214C71.4971 12.9373 72.9815 10.5794 74.8849 8.64757C76.8025 6.71575 79.0184 5.25268 81.5326 4.25836C84.061 3.26404 86.7812 2.76689 89.6931 2.76689C92.2215 2.76689 94.5724 3.1291 96.7457 3.85353C98.9332 4.57797 100.865 5.60069 102.541 6.92172C104.231 8.24274 105.602 9.81234 106.653 11.6305C107.704 13.4487 108.358 15.4444 108.614 17.6177H97.9389ZM118.299 46.9998V3.36348H148.725V11.9288H128.845V20.8777H147.169V29.4643H128.845V38.4345H148.725V46.9998H118.299ZM195.468 3.36348V46.9998H186.519L169.154 21.8152H168.877V46.9998H158.33V3.36348H167.407L184.58 28.5055H184.942V3.36348H195.468ZM215.646 3.36348V46.9998H205.099V3.36348H215.646ZM251.666 3.36348H262.192V31.5098C262.192 34.7626 261.418 37.5964 259.87 40.0112C258.321 42.4118 256.162 44.2726 253.392 45.5936C250.622 46.9004 247.405 47.5538 243.74 47.5538C240.033 47.5538 236.794 46.9004 234.024 45.5936C231.255 44.2726 229.103 42.4118 227.568 40.0112C226.034 37.5964 225.267 34.7626 225.267 31.5098V3.36348H235.814V30.5936C235.814 32.0993 236.141 33.4416 236.794 34.6206C237.462 35.7996 238.392 36.7229 239.586 37.3905C240.779 38.0581 242.164 38.3919 243.74 38.3919C245.317 38.3919 246.695 38.0581 247.874 37.3905C249.067 36.7229 249.997 35.7996 250.665 34.6206C251.333 33.4416 251.666 32.0993 251.666 30.5936V3.36348ZM295.389 16.4459C295.247 14.8834 294.615 13.6689 293.493 12.8024C292.385 11.9217 290.801 11.4814 288.741 11.4814C287.378 11.4814 286.241 11.6589 285.332 12.014C284.423 12.3692 283.741 12.8592 283.287 13.4842C282.832 14.095 282.598 14.7981 282.584 15.5936C282.555 16.247 282.683 16.8223 282.967 17.3194C283.266 17.8166 283.692 18.2569 284.246 18.6405C284.814 19.0098 285.496 19.3365 286.291 19.6206C287.087 19.9047 287.981 20.1532 288.976 20.3663L292.726 21.2186C294.885 21.6873 296.788 22.3123 298.436 23.0936C300.098 23.8748 301.49 24.8052 302.612 25.8848C303.749 26.9643 304.608 28.2072 305.19 29.6135C305.773 31.0197 306.071 32.5964 306.085 34.3436C306.071 37.0993 305.375 39.4643 303.997 41.4388C302.619 43.4132 300.638 44.926 298.052 45.9771C295.481 47.0283 292.378 47.5538 288.741 47.5538C285.091 47.5538 281.909 47.0069 279.196 45.9132C276.483 44.8194 274.374 43.1575 272.868 40.9274C271.362 38.6973 270.588 35.8777 270.545 32.4686H280.645C280.73 33.8748 281.106 35.0467 281.774 35.9842C282.442 36.9217 283.358 37.6319 284.523 38.1149C285.702 38.5979 287.065 38.8393 288.614 38.8393C290.034 38.8393 291.241 38.6476 292.236 38.264C293.244 37.8805 294.018 37.3479 294.558 36.666C295.098 35.9842 295.375 35.203 295.389 34.3223C295.375 33.4984 295.119 32.7953 294.622 32.2129C294.125 31.6163 293.358 31.105 292.321 30.6788C291.298 30.2385 289.991 29.8336 288.401 29.4643L283.841 28.399C280.062 27.5325 277.087 26.1334 274.913 24.2015C272.74 22.2555 271.66 19.6277 271.675 16.318C271.66 13.6192 272.385 11.2541 273.848 9.22285C275.311 7.1916 277.335 5.6078 279.92 4.47143C282.506 3.33507 285.453 2.76689 288.763 2.76689C292.143 2.76689 295.077 3.34217 297.562 4.49274C300.062 5.6291 302.001 7.22711 303.379 9.28677C304.757 11.3464 305.46 13.7328 305.489 16.4459H295.389ZM308.375 5.98564V4.27257H315.751V5.98564H313.105V12.9998H311.026V5.98564H308.375ZM317.382 4.27257H319.994L322.21 9.67598H322.312L324.528 4.27257H327.14V12.9998H325.086V7.63905H325.014L322.917 12.9444H321.605L319.508 7.60922H319.436V12.9998H317.382V4.27257ZM75.4516 53.4345H77.5823C77.5312 52.9118 77.3991 52.4473 77.186 52.041C76.973 51.6348 76.696 51.2925 76.355 51.014C76.0141 50.7328 75.6193 50.5197 75.1704 50.3748C74.7215 50.2271 74.2329 50.1532 73.7045 50.1532C72.9289 50.1532 72.2286 50.3265 71.6036 50.6731C70.9786 51.0197 70.4829 51.5268 70.1164 52.1944C69.7499 52.8621 69.5667 53.676 69.5667 54.6362C69.5667 55.5936 69.7471 56.4061 70.1079 57.0737C70.4687 57.7413 70.9602 58.2498 71.5823 58.5993C72.2073 58.9459 72.9147 59.1192 73.7045 59.1192C74.3039 59.1192 74.8352 59.0282 75.2982 58.8464C75.7641 58.6646 76.159 58.4203 76.4829 58.1135C76.8068 57.8038 77.061 57.4615 77.2457 57.0865C77.4332 56.7115 77.5454 56.3308 77.5823 55.9444L75.4516 55.9317C75.4147 56.1419 75.348 56.3308 75.2514 56.4984C75.1576 56.6632 75.0369 56.8038 74.8891 56.9203C74.7443 57.0339 74.5752 57.1206 74.382 57.1802C74.1917 57.2399 73.98 57.2697 73.7471 57.2697C73.3323 57.2697 72.973 57.1717 72.669 56.9757C72.3678 56.7768 72.1335 56.4828 71.9659 56.0936C71.8011 55.7015 71.7187 55.2157 71.7187 54.6362C71.7187 54.0794 71.7997 53.605 71.9616 53.2129C72.1264 52.8209 72.3607 52.5211 72.6647 52.3138C72.9715 52.1064 73.3366 52.0027 73.7599 52.0027C73.9985 52.0027 74.2159 52.0368 74.4119 52.105C74.6107 52.1703 74.7826 52.2655 74.9275 52.3905C75.0724 52.5155 75.1889 52.666 75.2769 52.8422C75.365 53.0183 75.4232 53.2157 75.4516 53.4345ZM80.672 58.7015C81.1663 58.9828 81.7573 59.1234 82.4448 59.1234C83.1323 59.1234 83.7217 58.9828 84.2132 58.7015C84.7075 58.4175 85.0868 58.0226 85.351 57.5169C85.618 57.0084 85.7516 56.4189 85.7516 55.7484C85.7516 55.0751 85.618 54.4856 85.351 53.98C85.0868 53.4714 84.7075 53.0765 84.2132 52.7953C83.7217 52.5112 83.1323 52.3692 82.4448 52.3692C81.7573 52.3692 81.1663 52.5112 80.672 52.7953C80.1805 53.0765 79.8013 53.4714 79.5342 53.98C79.27 54.4856 79.1379 55.0751 79.1379 55.7484C79.1379 56.4189 79.27 57.0084 79.5342 57.5169C79.8013 58.0226 80.1805 58.4175 80.672 58.7015ZM83.0925 57.3209C82.9192 57.4743 82.7075 57.551 82.4575 57.551C82.199 57.551 81.9803 57.4743 81.8013 57.3209C81.6252 57.1675 81.4902 56.9544 81.3965 56.6817C81.3055 56.4089 81.2601 56.0936 81.2601 55.7356C81.2601 55.372 81.3055 55.0538 81.3965 54.7811C81.4902 54.5084 81.6252 54.2953 81.8013 54.1419C81.9803 53.9885 82.199 53.9118 82.4575 53.9118C82.7075 53.9118 82.9192 53.9885 83.0925 54.1419C83.2658 54.2953 83.3979 54.5084 83.4888 54.7811C83.5825 55.0538 83.6294 55.372 83.6294 55.7356C83.6294 56.0936 83.5825 56.4089 83.4888 56.6817C83.3979 56.9544 83.2658 57.1675 83.0925 57.3209ZM87.419 52.4544V58.9998H89.5029V55.4459C89.5029 55.1845 89.5583 54.9572 89.669 54.764C89.7827 54.568 89.9375 54.416 90.1335 54.3081C90.3324 54.1973 90.5554 54.1419 90.8026 54.1419C90.9276 54.1419 91.0696 54.1518 91.2287 54.1717C91.3906 54.1916 91.5213 54.2186 91.6208 54.2527V52.4416C91.5327 52.416 91.4375 52.3976 91.3352 52.3862C91.233 52.372 91.1335 52.3649 91.0369 52.3649C90.679 52.3649 90.3651 52.4714 90.0952 52.6845C89.8253 52.8947 89.6307 53.2157 89.5114 53.6476H89.4432V52.4544H87.419ZM93.0698 52.4544V61.4544H95.1536V57.9388H95.1962C95.2843 58.1405 95.4093 58.3294 95.5712 58.5055C95.736 58.6817 95.9391 58.8237 96.1806 58.9317C96.4221 59.0396 96.7076 59.0936 97.0372 59.0936C97.5201 59.0936 97.959 58.9686 98.3539 58.7186C98.7516 58.4686 99.067 58.0936 99.2999 57.5936C99.5357 57.0936 99.6536 56.4729 99.6536 55.7314C99.6536 54.9615 99.5315 54.328 99.2872 53.8308C99.0428 53.3336 98.7218 52.9657 98.3241 52.7271C97.9292 52.4885 97.5045 52.3692 97.0499 52.3692C96.7062 52.3692 96.4107 52.4288 96.1636 52.5481C95.9193 52.6646 95.7176 52.8152 95.5585 52.9998C95.4022 53.1845 95.2815 53.3763 95.1962 53.5751H95.1323V52.4544H93.0698ZM95.2516 56.6476C95.1579 56.3862 95.111 56.0794 95.111 55.7271C95.111 55.3692 95.1579 55.0609 95.2516 54.8024C95.3482 54.5439 95.486 54.345 95.665 54.2058C95.844 54.0666 96.0613 53.997 96.317 53.997C96.5755 53.997 96.7928 54.068 96.969 54.2101C97.1479 54.3521 97.2829 54.5524 97.3738 54.8109C97.4676 55.0694 97.5144 55.3748 97.5144 55.7271C97.5144 56.0794 97.4676 56.3862 97.3738 56.6476C97.2829 56.9089 97.1479 57.1121 96.969 57.2569C96.79 57.399 96.5727 57.47 96.317 57.47C96.0641 57.47 95.8468 57.399 95.665 57.2569C95.486 57.1121 95.3482 56.9089 95.2516 56.6476ZM102.628 58.7015C103.123 58.9828 103.714 59.1234 104.401 59.1234C105.089 59.1234 105.678 58.9828 106.169 58.7015C106.664 58.4175 107.043 58.0226 107.307 57.5169C107.574 57.0084 107.708 56.4189 107.708 55.7484C107.708 55.0751 107.574 54.4856 107.307 53.98C107.043 53.4714 106.664 53.0765 106.169 52.7953C105.678 52.5112 105.089 52.3692 104.401 52.3692C103.714 52.3692 103.123 52.5112 102.628 52.7953C102.137 53.0765 101.758 53.4714 101.49 53.98C101.226 54.4856 101.094 55.0751 101.094 55.7484C101.094 56.4189 101.226 57.0084 101.49 57.5169C101.758 58.0226 102.137 58.4175 102.628 58.7015ZM105.049 57.3209C104.875 57.4743 104.664 57.551 104.414 57.551C104.155 57.551 103.937 57.4743 103.758 57.3209C103.581 57.1675 103.446 56.9544 103.353 56.6817C103.262 56.4089 103.216 56.0936 103.216 55.7356C103.216 55.372 103.262 55.0538 103.353 54.7811C103.446 54.5084 103.581 54.2953 103.758 54.1419C103.937 53.9885 104.155 53.9118 104.414 53.9118C104.664 53.9118 104.875 53.9885 105.049 54.1419C105.222 54.2953 105.354 54.5084 105.445 54.7811C105.539 55.0538 105.586 55.372 105.586 55.7356C105.586 56.0936 105.539 56.4089 105.445 56.6817C105.354 56.9544 105.222 57.1675 105.049 57.3209ZM111.399 52.4544H109.375V58.9998H111.459V55.4459C111.459 55.1845 111.514 54.9572 111.625 54.764C111.739 54.568 111.894 54.416 112.09 54.3081C112.289 54.1973 112.512 54.1419 112.759 54.1419C112.884 54.1419 113.026 54.1518 113.185 54.1717C113.347 54.1916 113.478 54.2186 113.577 54.2527V52.4416C113.489 52.416 113.394 52.3976 113.291 52.3862C113.189 52.372 113.09 52.3649 112.993 52.3649C112.635 52.3649 112.321 52.4714 112.051 52.6845C111.782 52.8947 111.587 53.2157 111.468 53.6476H111.399V52.4544ZM115.513 58.9018C115.837 59.041 116.208 59.1106 116.625 59.1106C116.929 59.1106 117.202 59.0723 117.443 58.9956C117.688 58.9189 117.899 58.8038 118.078 58.6504C118.26 58.497 118.409 58.3095 118.526 58.0879H118.577V58.9998H120.537V54.551C120.537 54.2044 120.465 53.8961 120.32 53.6263C120.178 53.3564 119.976 53.1291 119.715 52.9444C119.453 52.7569 119.146 52.6149 118.794 52.5183C118.442 52.4189 118.057 52.3692 117.639 52.3692C117.054 52.3692 116.553 52.4601 116.135 52.6419C115.72 52.8209 115.394 53.068 115.155 53.3834C114.919 53.6959 114.773 54.051 114.716 54.4487L116.638 54.5169C116.683 54.3067 116.79 54.1419 116.958 54.0226C117.125 53.9032 117.347 53.8436 117.622 53.8436C117.878 53.8436 118.081 53.9032 118.232 54.0226C118.382 54.1419 118.458 54.3109 118.458 54.5297V54.551C118.458 54.6845 118.405 54.7882 118.3 54.8621C118.198 54.9331 118.033 54.9885 117.806 55.0282C117.578 55.0652 117.279 55.1007 116.906 55.1348C116.574 55.1632 116.262 55.2186 115.969 55.301C115.676 55.3805 115.418 55.4984 115.193 55.6547C114.969 55.8109 114.793 56.014 114.665 56.264C114.537 56.514 114.473 56.8209 114.473 57.1845C114.473 57.6163 114.565 57.9757 114.75 58.2626C114.938 58.5467 115.192 58.7598 115.513 58.9018ZM117.874 57.6106C117.695 57.7015 117.493 57.747 117.269 57.747C117.03 57.747 116.833 57.6902 116.676 57.5765C116.523 57.4629 116.446 57.2981 116.446 57.0822C116.446 56.9402 116.482 56.818 116.553 56.7157C116.627 56.6106 116.732 56.5254 116.868 56.4601C117.007 56.3947 117.175 56.3464 117.371 56.3152C117.467 56.301 117.568 56.2854 117.673 56.2683C117.779 56.2513 117.881 56.2314 117.98 56.2086C118.08 56.1859 118.171 56.1618 118.253 56.1362C118.338 56.1106 118.411 56.0822 118.47 56.051V56.6731C118.47 56.8862 118.416 57.0737 118.308 57.2356C118.2 57.3947 118.056 57.5197 117.874 57.6106ZM125.026 59.1029C124.521 59.0542 124.075 58.919 123.69 58.6973C123.198 58.4132 122.82 58.0183 122.556 57.5126C122.292 57.0041 122.16 56.416 122.16 55.7484C122.16 55.078 122.292 54.4899 122.556 53.9842C122.823 53.4757 123.202 53.0794 123.694 52.7953C124.188 52.5112 124.778 52.3692 125.462 52.3692C126.067 52.3692 126.594 52.4785 127.043 52.6973C127.495 52.916 127.847 53.2257 128.1 53.6263C128.356 54.024 128.491 54.4913 128.505 55.0282H126.558C126.518 54.693 126.404 54.4302 126.217 54.2399C126.032 54.0496 125.79 53.9544 125.492 53.9544C125.251 53.9544 125.039 54.0226 124.857 54.1589C124.675 54.2925 124.533 54.4913 124.431 54.7555C124.332 55.0169 124.282 55.3407 124.282 55.7271C124.282 56.1135 124.332 56.4402 124.431 56.7072C124.533 56.9714 124.675 57.1717 124.857 57.3081C125.039 57.4416 125.251 57.5084 125.492 57.5084C125.685 57.5084 125.856 57.4672 126.004 57.3848C126.154 57.3024 126.278 57.1817 126.374 57.0226C126.471 56.8606 126.532 56.6646 126.558 56.4345H128.505C128.485 56.9743 128.35 57.4459 128.1 57.8493C127.853 58.2527 127.505 58.5666 127.056 58.791C126.71 58.9628 126.314 59.068 125.868 59.1066L125.825 59.3493C126.137 59.3947 126.387 59.5069 126.575 59.6859C126.762 59.8677 126.857 60.1035 126.86 60.3933C126.863 60.8365 126.651 61.1859 126.225 61.4416C125.802 61.7001 125.212 61.8294 124.457 61.8294L124.448 60.9729C124.837 60.9729 125.139 60.9288 125.352 60.8407C125.565 60.7527 125.675 60.6192 125.684 60.4402C125.692 60.2754 125.629 60.1433 125.492 60.0439C125.356 59.9473 125.144 59.8805 124.857 59.8436L125.026 59.1029ZM130.904 58.9018C131.228 59.041 131.599 59.1106 132.017 59.1106C132.321 59.1106 132.593 59.0723 132.835 58.9956C133.079 58.9189 133.291 58.8038 133.47 58.6504C133.652 58.497 133.801 58.3095 133.917 58.0879H133.968V58.9998H135.928V54.551C135.928 54.2044 135.856 53.8961 135.711 53.6263C135.569 53.3564 135.367 53.1291 135.106 52.9444C134.845 52.7569 134.538 52.6149 134.186 52.5183C133.833 52.4189 133.448 52.3692 133.031 52.3692C132.446 52.3692 131.944 52.4601 131.527 52.6419C131.112 52.8209 130.785 53.068 130.546 53.3834C130.311 53.6959 130.164 54.051 130.107 54.4487L132.029 54.5169C132.075 54.3067 132.181 54.1419 132.349 54.0226C132.517 53.9032 132.738 53.8436 133.014 53.8436C133.269 53.8436 133.473 53.9032 133.623 54.0226C133.774 54.1419 133.849 54.3109 133.849 54.5297V54.551C133.849 54.6845 133.796 54.7882 133.691 54.8621C133.589 54.9331 133.424 54.9885 133.197 55.0282C132.97 55.0652 132.67 55.1007 132.298 55.1348C131.965 55.1632 131.653 55.2186 131.36 55.301C131.068 55.3805 130.809 55.4984 130.585 55.6547C130.36 55.8109 130.184 56.014 130.056 56.264C129.928 56.514 129.865 56.8209 129.865 57.1845C129.865 57.6163 129.957 57.9757 130.142 58.2626C130.329 58.5467 130.583 58.7598 130.904 58.9018ZM133.265 57.6106C133.086 57.7015 132.884 57.747 132.66 57.747C132.421 57.747 132.224 57.6902 132.068 57.5765C131.914 57.4629 131.838 57.2981 131.838 57.0822C131.838 56.9402 131.873 56.818 131.944 56.7157C132.018 56.6106 132.123 56.5254 132.259 56.4601C132.399 56.3947 132.566 56.3464 132.762 56.3152C132.859 56.301 132.96 56.2854 133.065 56.2683C133.17 56.2513 133.272 56.2314 133.372 56.2086C133.471 56.1859 133.562 56.1618 133.644 56.1362C133.73 56.1106 133.802 56.0822 133.862 56.051V56.6731C133.862 56.8862 133.808 57.0737 133.7 57.2356C133.592 57.3947 133.447 57.5197 133.265 57.6106ZM130.823 51.6362L131.91 51.6447C131.91 51.4373 131.953 51.2782 132.038 51.1675C132.123 51.0538 132.235 50.997 132.375 50.997C132.494 50.997 132.603 51.0311 132.703 51.0993C132.802 51.1646 132.906 51.2413 133.014 51.3294C133.125 51.4175 133.255 51.4956 133.406 51.5638C133.556 51.6319 133.74 51.6646 133.955 51.6618C134.348 51.6589 134.68 51.5084 134.953 51.2101C135.225 50.9089 135.366 50.4729 135.375 49.9018L134.305 49.889C134.302 50.0907 134.261 50.2513 134.181 50.3706C134.105 50.4871 133.985 50.5467 133.823 50.5496C133.71 50.5496 133.602 50.5169 133.5 50.4515C133.4 50.3834 133.292 50.3052 133.176 50.2172C133.062 50.1263 132.93 50.0481 132.779 49.9828C132.632 49.9146 132.453 49.8805 132.242 49.8805C131.848 49.8834 131.512 50.0325 131.237 50.328C130.961 50.6234 130.823 51.0595 130.823 51.6362ZM139.085 58.7015C139.58 58.9828 140.171 59.1234 140.858 59.1234C141.546 59.1234 142.135 58.9828 142.626 58.7015C143.121 58.4175 143.5 58.0226 143.764 57.5169C144.031 57.0084 144.165 56.4189 144.165 55.7484C144.165 55.0751 144.031 54.4856 143.764 53.98C143.5 53.4714 143.121 53.0765 142.626 52.7953C142.135 52.5112 141.546 52.3692 140.858 52.3692C140.171 52.3692 139.58 52.5112 139.085 52.7953C138.594 53.0765 138.215 53.4714 137.948 53.98C137.683 54.4856 137.551 55.0751 137.551 55.7484C137.551 56.4189 137.683 57.0084 137.948 57.5169C138.215 58.0226 138.594 58.4175 139.085 58.7015ZM141.506 57.3209C141.332 57.4743 141.121 57.551 140.871 57.551C140.612 57.551 140.394 57.4743 140.215 57.3209C140.038 57.1675 139.903 56.9544 139.81 56.6817C139.719 56.4089 139.673 56.0936 139.673 55.7356C139.673 55.372 139.719 55.0538 139.81 54.7811C139.903 54.5084 140.038 54.2953 140.215 54.1419C140.394 53.9885 140.612 53.9118 140.871 53.9118C141.121 53.9118 141.332 53.9885 141.506 54.1419C141.679 54.2953 141.811 54.5084 141.902 54.7811C141.996 55.0538 142.043 55.372 142.043 55.7356C142.043 56.0936 141.996 56.4089 141.902 56.6817C141.811 56.9544 141.679 57.1675 141.506 57.3209Z" fill="#FF8A00"/>
</svg>
