<svg width="170" height="34" viewBox="0 0 170 34" fill="none" xmlns="http://www.w3.org/2000/svg">
<path fill-rule="evenodd" clip-rule="evenodd" d="M29.5755 3.21268C28.3477 2.74274 27.0202 2.51002 25.5838 2.52297C24.3318 2.53427 23.1875 2.72378 22.1436 3.08226L22.1417 3.08289C21.0797 3.44524 20.1588 3.94617 19.3688 4.58042L19.3656 4.58298C18.8161 5.02048 18.3419 5.51093 17.9406 6.05545C17.9854 6.06961 18.03 6.08402 18.0746 6.09866C19.153 6.44728 20.1502 6.92649 21.0563 7.54041C21.3537 7.11982 21.7131 6.75656 22.132 6.45415C22.5942 6.12045 23.1144 5.8761 23.6818 5.7142C24.2506 5.54431 24.8579 5.46146 25.4966 5.4557C26.7929 5.444 27.9709 5.74906 28.9883 6.40802L28.9919 6.41034C30.0014 7.07031 30.7574 8.02365 31.2793 9.21395C31.8045 10.4044 32.0541 11.8058 32.0684 13.3854C32.0827 14.9694 31.8669 16.3804 31.3838 17.5893C30.8998 18.8006 30.1686 19.779 29.1694 20.4676C28.262 21.093 27.2015 21.4211 26.0263 21.4879L25.8776 23.0428C25.8328 23.5116 25.7551 23.9748 25.6456 24.4322L25.7132 24.4318C27.7844 24.4131 29.555 23.9496 31.0569 23.0723C32.5593 22.1948 33.7271 20.9555 34.5668 19.329C35.4014 17.7048 35.8285 15.7464 35.8075 13.4198C35.7912 11.6089 35.5075 10.0436 34.9793 8.70655L34.9787 8.70495C34.4428 7.34151 33.7125 6.21168 32.7957 5.2975C31.8617 4.37373 30.7905 3.6807 29.5755 3.21268ZM23.6194 24.279C23.7518 23.8068 23.841 23.3313 23.8867 22.8525L21.8761 22.8405L19.8943 22.8286C20.1964 23.0349 20.5164 23.2231 20.8545 23.3933L20.8563 23.3942C21.6918 23.8168 22.6109 24.1139 23.6194 24.279ZM17.9163 23.8293C18.5275 24.3527 19.2072 24.803 19.954 25.1791C20.857 25.6358 21.8232 25.9651 22.8487 26.1711C22.3705 27.0648 21.7393 27.8866 20.9549 28.6366C20.0913 29.4548 19.0382 30.1063 17.7958 30.5912C16.561 31.076 15.1443 31.3184 13.5458 31.3184C11.4397 31.3184 9.55339 30.8563 7.88672 29.9321C6.22763 29.0002 4.91702 27.6442 3.9549 25.8639C2.99278 24.0836 2.51172 21.9169 2.51172 19.3639C2.51172 16.8033 3.00035 14.6328 3.97763 12.8525C4.9549 11.0722 6.27687 9.71994 7.94354 8.7957C9.6102 7.87145 11.4776 7.40933 13.5458 7.40933C14.0357 7.40933 14.5127 7.43314 14.977 7.48075C14.7729 8.10355 14.6347 8.75256 14.5615 9.42629L14.4402 10.5443L15.5647 10.5341L21.2577 10.4828L21.4449 10.4811C21.7183 10.7732 21.9718 11.0853 22.2053 11.4174L15.3233 11.4795L14.3233 11.4885L14.3313 12.3735C14.1254 12.352 13.9129 12.3412 13.6935 12.3412C12.5647 12.3412 11.5913 12.6177 10.7731 13.1707C9.96248 13.7237 9.33748 14.523 8.89808 15.5684C8.46626 16.6139 8.25035 17.879 8.25035 19.3639C8.25035 20.9093 8.47005 22.2048 8.90945 23.2502C9.35642 24.2881 9.98142 25.0722 10.7844 25.6025C11.5951 26.1252 12.5534 26.3866 13.6594 26.3866C14.2807 26.3866 14.8451 26.3071 15.3526 26.148C15.8678 25.9889 16.3185 25.7578 16.7049 25.4548C17.0988 25.1442 17.4208 24.7692 17.6708 24.3298C17.7628 24.1702 17.8446 24.0033 17.9163 23.8293ZM17.8746 20.8164L18.2169 20.8185L22.4126 20.8436C21.6132 20.4381 20.9673 19.8644 20.5112 19.1164C20.3265 18.8136 20.179 18.4939 20.0667 18.1593H18.2049H16.6748C16.8823 18.9812 17.19 19.7191 17.5918 20.3787L17.5938 20.3819C17.6837 20.5308 17.7773 20.6756 17.8746 20.8164ZM14.3495 14.3941L14.3601 15.5679C14.3802 17.7938 14.8723 19.7582 15.8828 21.4176C16.0173 21.6401 16.1586 21.8556 16.3068 22.064L16.2351 22.4724C16.1728 22.827 16.0677 23.1061 15.9379 23.3312L15.9379 23.3312L15.9325 23.3407C15.8095 23.5569 15.6574 23.7334 15.4686 23.8827C15.2928 24.0201 15.0658 24.1433 14.7625 24.237L14.7625 24.237L14.7545 24.2395C14.4698 24.3287 14.111 24.3866 13.6594 24.3866C12.8854 24.3866 12.3183 24.2093 11.8775 23.9276C11.4581 23.6479 11.0672 23.2007 10.7499 22.4673C10.4456 21.7394 10.2504 20.7288 10.2504 19.3639C10.2504 18.0665 10.4398 17.0775 10.7443 16.3376C11.0569 15.5962 11.4542 15.1282 11.8966 14.8253C12.3379 14.5281 12.9072 14.3412 13.6935 14.3412C13.939 14.3412 14.1564 14.3604 14.3495 14.3941ZM16.9079 13.4653C17.2479 13.7802 17.5249 14.1516 17.739 14.5798C17.9738 15.0495 18.1291 15.576 18.2049 16.1593H19.6582L19.6164 15.5503L20.6607 15.4159L21.7782 15.272L21.7804 15.5237L23.8052 15.5055C23.7339 15.038 23.6365 14.5893 23.5129 14.1593C23.439 13.9022 23.3558 13.6517 23.2633 13.408L16.9079 13.4653ZM22.2724 18.1593C22.5339 18.5521 22.9083 18.8729 23.432 19.1156C23.979 19.3652 24.6971 19.5089 25.6233 19.5006C26.6273 19.4915 27.4137 19.2486 28.0345 18.8208C28.6617 18.3886 29.166 17.7497 29.5266 16.8472C29.8881 15.9424 30.0811 14.8041 30.0685 13.4034C30.0559 12.014 29.8361 10.8972 29.449 10.0203L29.448 10.0179C29.0575 9.12681 28.5347 8.50147 27.8993 8.08554C27.2558 7.66928 26.4749 7.44695 25.5146 7.45561C25.0349 7.45994 24.6156 7.52207 24.2495 7.63193L24.2424 7.63407L24.2352 7.63611C23.8684 7.74026 23.5611 7.88913 23.3027 8.07571C23.0399 8.26545 22.8202 8.49448 22.6399 8.76747L22.6399 8.7675L22.6346 8.77545C22.6264 8.78752 22.6184 8.79971 22.6104 8.81201C23.3743 9.56491 24.0169 10.4294 24.5383 11.3964L25.3569 11.389L26.3569 11.38L26.3659 12.38L26.4029 16.4821L26.4119 17.482L26.026 17.4855L26.0919 18.1593H23.8867H22.2724ZM18.728 8.50551C18.3235 8.31205 17.8991 8.14363 17.4549 8.00024C17.2936 7.94717 17.1304 7.89766 16.9653 7.85174C16.8844 8.07052 16.814 8.29434 16.7541 8.52332L18.728 8.50551ZM15.8564 5.57615C15.1071 5.4641 14.3363 5.40933 13.5458 5.40933C11.168 5.40933 8.962 5.94397 6.9736 7.04663C4.95491 8.16609 3.37086 9.80162 2.22441 11.8901C1.04832 14.0326 0.511719 16.5529 0.511719 19.3639C0.511719 22.1638 1.0394 24.6757 2.1954 26.8148C3.32542 28.9057 4.89723 30.5469 6.90733 31.6758L6.90732 31.6759L6.91678 31.6811C8.91057 32.7868 11.1368 33.3184 13.5458 33.3184C15.3437 33.3184 17.0153 33.0459 18.5248 32.4536C19.9781 31.8862 21.2583 31.1042 22.3304 30.0885L22.3304 30.0885L22.3371 30.0822C23.3561 29.1078 24.1778 28.0094 24.7806 26.7869C24.8415 26.665 24.9001 26.5425 24.9563 26.4195C25.2116 26.43 25.4699 26.4341 25.7313 26.4317C28.0993 26.4103 30.2214 25.8766 32.0656 24.7993C33.9092 23.7225 35.3376 22.196 36.3444 20.2456L36.3452 20.244C37.1057 18.7644 37.5623 17.1017 37.7322 15.2705C37.9523 16.2918 38.2876 17.2313 38.7383 18.089C39.619 19.7581 40.8477 21.0436 42.4244 21.9456C44.0011 22.8475 45.8299 23.2985 47.9109 23.2985C49.7859 23.2985 51.4442 22.9257 52.886 22.1799C54.3349 21.4342 55.4712 20.3653 56.2951 18.9733C57.1261 17.5812 57.5415 15.9086 57.5415 13.9555V11.0684H48.1346V14.9143H52.4586C52.4421 15.6536 52.2685 16.2999 51.9379 16.8532C51.5898 17.4356 51.0785 17.8866 50.4038 18.2062C49.7361 18.5187 48.9194 18.675 47.9535 18.675C46.8597 18.675 45.9293 18.4157 45.1623 17.8973C44.3952 17.3788 43.8093 16.626 43.4045 15.6387C42.9996 14.6515 42.7972 13.4583 42.7972 12.0592C42.7972 10.6671 43.0067 9.48462 43.4258 8.51161C43.8448 7.53149 44.4379 6.78575 45.2049 6.27439C45.979 5.76303 46.8952 5.50734 47.9535 5.50734C48.479 5.50734 48.962 5.57126 49.4023 5.69911C49.8427 5.81984 50.2333 6.00095 50.5742 6.24243C50.9151 6.48391 51.2028 6.77865 51.4371 7.12666C51.6715 7.46757 51.8491 7.86175 51.9698 8.30919H57.3072C57.1793 7.22254 56.8526 6.22467 56.3271 5.31558C55.8015 4.40649 55.1161 3.62169 54.271 2.96118C53.4329 2.30067 52.467 1.78931 51.3732 1.42709C50.2866 1.06487 49.1111 0.883765 47.8469 0.883765C46.391 0.883765 45.0309 1.13234 43.7667 1.6295C42.5096 2.12666 41.4016 2.8582 40.4428 3.82411C39.4911 4.79001 38.7489 5.96899 38.2163 7.36104C37.8697 8.26199 37.6359 9.24862 37.5148 10.3209C37.356 9.49511 37.1317 8.71178 36.8398 7.9726C36.2128 6.37766 35.3377 5.00739 34.2064 3.87976L34.2038 3.87715C33.0744 2.75974 31.7687 1.9141 30.2934 1.34598L30.2916 1.34529C28.8132 0.77925 27.2349 0.507997 25.5657 0.523054C24.1213 0.536084 22.7618 0.755435 21.4949 1.19037C20.2317 1.62151 19.1028 2.22951 18.1183 3.01961C17.2067 3.74569 16.4509 4.59873 15.8564 5.57615ZM62.1497 23.0002V1.18206H77.3627V5.46473H67.4231V9.93916H76.5851V14.2325H67.4231V18.7176H77.3627V23.0002H62.1497ZM100.734 1.18206V23.0002H96.2598L87.5772 10.4079H87.4387V23.0002H82.1653V1.18206H86.7037L95.2903 13.7531H95.4714V1.18206H100.734ZM110.824 1.18206V23.0002H105.55V1.18206H110.824ZM128.834 1.18206H134.096V15.2552C134.096 16.8816 133.709 18.2985 132.935 19.5059C132.161 20.7062 131.081 21.6366 129.697 22.2971C128.312 22.9505 126.703 23.2772 124.871 23.2772C123.017 23.2772 121.398 22.9505 120.013 22.2971C118.628 21.6366 117.552 20.7062 116.785 19.5059C116.018 18.2985 115.634 16.8816 115.634 15.2552V1.18206H120.907V14.7971C120.907 15.55 121.071 16.2211 121.398 16.8106C121.731 17.4001 122.197 17.8617 122.793 18.1956C123.39 18.5294 124.082 18.6963 124.871 18.6963C125.659 18.6963 126.348 18.5294 126.937 18.1956C127.534 17.8617 127.999 17.4001 128.333 16.8106C128.667 16.2211 128.834 15.55 128.834 14.7971V1.18206ZM150.695 7.72325C150.624 6.942 150.308 6.33476 149.747 5.90152C149.193 5.46118 148.401 5.24101 147.371 5.24101C146.689 5.24101 146.121 5.32979 145.667 5.50734C145.212 5.6849 144.871 5.92993 144.644 6.24243C144.417 6.54783 144.299 6.89939 144.292 7.29712C144.278 7.62382 144.342 7.91146 144.484 8.16004C144.633 8.40862 144.846 8.62879 145.123 8.82055C145.407 9.00521 145.748 9.16857 146.146 9.31061C146.544 9.45266 146.991 9.57695 147.488 9.68348L149.363 10.1096C150.443 10.344 151.395 10.6565 152.218 11.0471C153.049 11.4377 153.745 11.9029 154.306 12.4427C154.875 12.9825 155.304 13.6039 155.596 14.3071C155.887 15.0102 156.036 15.7985 156.043 16.6721C156.036 18.05 155.688 19.2325 154.999 20.2197C154.31 21.2069 153.319 21.9633 152.027 22.4889C150.741 23.0144 149.189 23.2772 147.371 23.2772C145.546 23.2772 143.955 23.0038 142.598 22.4569C141.242 21.91 140.187 21.0791 139.434 19.964C138.681 18.849 138.294 17.4392 138.273 15.7346H143.323C143.365 16.4377 143.554 17.0237 143.887 17.4924C144.221 17.9612 144.679 18.3163 145.262 18.5578C145.851 18.7992 146.533 18.92 147.307 18.92C148.017 18.92 148.621 18.8241 149.118 18.6323C149.623 18.4406 150.01 18.1742 150.279 17.8333C150.549 17.4924 150.688 17.1018 150.695 16.6615C150.688 16.2495 150.56 15.898 150.311 15.6068C150.063 15.3085 149.679 15.0528 149.161 14.8397C148.65 14.6196 147.996 14.4171 147.201 14.2325L144.921 13.6998C143.032 13.2666 141.544 12.567 140.457 11.6011C139.37 10.6281 138.831 9.31416 138.838 7.65933C138.831 6.3099 139.193 5.12737 139.924 4.11175C140.656 3.09612 141.668 2.30422 142.961 1.73604C144.253 1.16786 145.727 0.883765 147.382 0.883765C149.072 0.883765 150.539 1.17141 151.782 1.74669C153.032 2.31487 154.001 3.11388 154.69 4.14371C155.379 5.17354 155.73 6.36672 155.745 7.72325H150.695ZM157.25 2.32411V1.18206H162.168V2.32411H160.404V7.00024H159.017V2.32411H157.25ZM163.255 1.18206H164.996L166.474 4.78433H166.542L168.019 1.18206H169.76V7.00024H168.391V3.42638H168.343L166.945 6.96331H166.07L164.672 3.40649H164.624V7.00024H163.255V1.18206ZM42.3015 28.29H43.7219C43.6879 27.9415 43.5998 27.6319 43.4577 27.361C43.3157 27.0902 43.131 26.862 42.9038 26.6764C42.6765 26.4889 42.4132 26.3468 42.114 26.2502C41.8148 26.1518 41.489 26.1025 41.1367 26.1025C40.6197 26.1025 40.1528 26.218 39.7361 26.4491C39.3195 26.6802 38.989 27.0182 38.7447 27.4633C38.5004 27.9084 38.3782 28.451 38.3782 29.0912C38.3782 29.7294 38.4985 30.2711 38.739 30.7162C38.9795 31.1612 39.3072 31.5002 39.7219 31.7332C40.1386 31.9643 40.6102 32.0798 41.1367 32.0798C41.5363 32.0798 41.8905 32.0192 42.1992 31.898C42.5098 31.7768 42.7731 31.6139 42.989 31.4093C43.2049 31.2029 43.3744 30.9747 43.4975 30.7247C43.6225 30.4747 43.6973 30.2209 43.7219 29.9633L42.3015 29.9548C42.2769 30.0949 42.2324 30.2209 42.168 30.3326C42.1055 30.4425 42.025 30.5362 41.9265 30.6139C41.8299 30.6896 41.7172 30.7474 41.5884 30.7872C41.4615 30.8269 41.3204 30.8468 41.1651 30.8468C40.8886 30.8468 40.649 30.7815 40.4464 30.6508C40.2456 30.5182 40.0894 30.3222 39.9776 30.0627C39.8678 29.8014 39.8129 29.4775 39.8129 29.0912C39.8129 28.7199 39.8668 28.4037 39.9748 28.1423C40.0846 27.8809 40.2409 27.6811 40.4435 27.5429C40.6481 27.4046 40.8915 27.3355 41.1736 27.3355C41.3327 27.3355 41.4776 27.3582 41.6083 27.4037C41.7409 27.4472 41.8555 27.5107 41.9521 27.594C42.0486 27.6773 42.1263 27.7777 42.185 27.8951C42.2437 28.0126 42.2826 28.1442 42.3015 28.29ZM45.7817 31.8014C46.1113 31.9889 46.5052 32.0826 46.9636 32.0826C47.4219 32.0826 47.8149 31.9889 48.1425 31.8014C48.4721 31.612 48.7249 31.3487 48.9011 31.0116C49.0791 30.6726 49.1681 30.2796 49.1681 29.8326C49.1681 29.3838 49.0791 28.9908 48.9011 28.6537C48.7249 28.3146 48.4721 28.0514 48.1425 27.8639C47.8149 27.6745 47.4219 27.5798 46.9636 27.5798C46.5052 27.5798 46.1113 27.6745 45.7817 27.8639C45.4541 28.0514 45.2013 28.3146 45.0232 28.6537C44.8471 28.9908 44.759 29.3838 44.759 29.8326C44.759 30.2796 44.8471 30.6726 45.0232 31.0116C45.2013 31.3487 45.4541 31.612 45.7817 31.8014ZM47.3954 30.8809C47.2799 30.9832 47.1388 31.0343 46.9721 31.0343C46.7997 31.0343 46.6539 30.9832 46.5346 30.8809C46.4172 30.7787 46.3272 30.6366 46.2647 30.4548C46.2041 30.273 46.1738 30.0627 46.1738 29.8241C46.1738 29.5817 46.2041 29.3696 46.2647 29.1877C46.3272 29.0059 46.4172 28.8639 46.5346 28.7616C46.6539 28.6593 46.7997 28.6082 46.9721 28.6082C47.1388 28.6082 47.2799 28.6593 47.3954 28.7616C47.5109 28.8639 47.599 29.0059 47.6596 29.1877C47.7221 29.3696 47.7533 29.5817 47.7533 29.8241C47.7533 30.0627 47.7221 30.273 47.6596 30.4548C47.599 30.6366 47.5109 30.7787 47.3954 30.8809ZM50.2798 27.6366V32.0002H51.669V29.6309C51.669 29.4567 51.7059 29.3052 51.7798 29.1764C51.8555 29.0457 51.9587 28.9444 52.0894 28.8724C52.222 28.7985 52.3707 28.7616 52.5354 28.7616C52.6188 28.7616 52.7135 28.7682 52.8195 28.7815C52.9275 28.7948 53.0146 28.8127 53.0809 28.8355V27.6281C53.0222 27.611 52.9587 27.5987 52.8906 27.5912C52.8224 27.5817 52.7561 27.5769 52.6917 27.5769C52.4531 27.5769 52.2438 27.648 52.0639 27.79C51.8839 27.9302 51.7542 28.1442 51.6746 28.4321H51.6292V27.6366H50.2798ZM54.0469 27.6366V33.6366H55.4361V31.2929H55.4646C55.5233 31.4273 55.6066 31.5533 55.7146 31.6707C55.8244 31.7881 55.9598 31.8828 56.1208 31.9548C56.2818 32.0268 56.4721 32.0627 56.6918 32.0627C57.0138 32.0627 57.3064 31.9794 57.5697 31.8127C57.8348 31.6461 58.0451 31.3961 58.2004 31.0627C58.3576 30.7294 58.4361 30.3156 58.4361 29.8213C58.4361 29.308 58.3547 28.8857 58.1918 28.5542C58.029 28.2228 57.8149 27.9775 57.5498 27.8184C57.2865 27.6593 57.0034 27.5798 56.7004 27.5798C56.4712 27.5798 56.2742 27.6196 56.1094 27.6991C55.9466 27.7768 55.8121 27.8771 55.706 28.0002C55.6019 28.1233 55.5214 28.2512 55.4646 28.3838H55.4219V27.6366H54.0469ZM55.5015 30.4321C55.439 30.2578 55.4077 30.0533 55.4077 29.8184C55.4077 29.5798 55.439 29.3743 55.5015 29.2019C55.5659 29.0296 55.6577 28.897 55.7771 28.8042C55.8964 28.7114 56.0413 28.665 56.2117 28.665C56.3841 28.665 56.529 28.7124 56.6464 28.8071C56.7657 28.9018 56.8557 29.0353 56.9163 29.2076C56.9788 29.38 57.01 29.5836 57.01 29.8184C57.01 30.0533 56.9788 30.2578 56.9163 30.4321C56.8557 30.6063 56.7657 30.7417 56.6464 30.8383C56.5271 30.933 56.3822 30.9804 56.2117 30.9804C56.0432 30.9804 55.8983 30.933 55.7771 30.8383C55.6577 30.7417 55.5659 30.6063 55.5015 30.4321ZM60.4192 31.8014C60.7488 31.9889 61.1427 32.0826 61.6011 32.0826C62.0594 32.0826 62.4524 31.9889 62.78 31.8014C63.1096 31.612 63.3624 31.3487 63.5386 31.0116C63.7166 30.6726 63.8056 30.2796 63.8056 29.8326C63.8056 29.3838 63.7166 28.9908 63.5386 28.6537C63.3624 28.3146 63.1096 28.0514 62.78 27.8639C62.4524 27.6745 62.0594 27.5798 61.6011 27.5798C61.1427 27.5798 60.7488 27.6745 60.4192 27.8639C60.0916 28.0514 59.8388 28.3146 59.6607 28.6537C59.4846 28.9908 59.3965 29.3838 59.3965 29.8326C59.3965 30.2796 59.4846 30.6726 59.6607 31.0116C59.8388 31.3487 60.0916 31.612 60.4192 31.8014ZM62.0329 30.8809C61.9174 30.9832 61.7763 31.0343 61.6096 31.0343C61.4372 31.0343 61.2914 30.9832 61.1721 30.8809C61.0547 30.7787 60.9647 30.6366 60.9022 30.4548C60.8416 30.273 60.8113 30.0627 60.8113 29.8241C60.8113 29.5817 60.8416 29.3696 60.9022 29.1877C60.9647 29.0059 61.0547 28.8639 61.1721 28.7616C61.2914 28.6593 61.4372 28.6082 61.6096 28.6082C61.7763 28.6082 61.9174 28.6593 62.0329 28.7616C62.1484 28.8639 62.2365 29.0059 62.2971 29.1877C62.3596 29.3696 62.3908 29.5817 62.3908 29.8241C62.3908 30.0627 62.3596 30.273 62.2971 30.4548C62.2365 30.6366 62.1484 30.7787 62.0329 30.8809ZM66.2667 27.6366H64.9173V32.0002H66.3065V29.6309C66.3065 29.4567 66.3434 29.3052 66.4173 29.1764C66.493 29.0457 66.5962 28.9444 66.7269 28.8724C66.8595 28.7985 67.0082 28.7616 67.1729 28.7616C67.2563 28.7616 67.351 28.7682 67.457 28.7815C67.565 28.7948 67.6521 28.8127 67.7184 28.8355V27.6281C67.6597 27.611 67.5962 27.5987 67.5281 27.5912C67.4599 27.5817 67.3936 27.5769 67.3292 27.5769C67.0906 27.5769 66.8813 27.648 66.7013 27.79C66.5214 27.9302 66.3917 28.1442 66.3121 28.4321H66.2667V27.6366ZM69.009 31.9349C69.2249 32.0277 69.4721 32.0741 69.7505 32.0741C69.9531 32.0741 70.135 32.0485 70.296 31.9974C70.4588 31.9463 70.5999 31.8696 70.7192 31.7673C70.8405 31.665 70.9399 31.54 71.0175 31.3923H71.0516V32.0002H72.3585V29.0343C72.3585 28.8033 72.3102 28.5978 72.2136 28.4179C72.1189 28.2379 71.9844 28.0864 71.8102 27.9633C71.6359 27.8383 71.4314 27.7436 71.1965 27.6792C70.9617 27.6129 70.705 27.5798 70.4266 27.5798C70.0365 27.5798 69.7022 27.6404 69.4238 27.7616C69.1473 27.8809 68.9295 28.0457 68.7704 28.2559C68.6132 28.4643 68.5156 28.701 68.4778 28.9662L69.759 29.0116C69.7893 28.8715 69.8603 28.7616 69.9721 28.6821C70.0838 28.6025 70.2316 28.5627 70.4153 28.5627C70.5857 28.5627 70.7211 28.6025 70.8215 28.6821C70.9219 28.7616 70.9721 28.8743 70.9721 29.0201V29.0343C70.9721 29.1233 70.937 29.1925 70.867 29.2417C70.7988 29.2891 70.6889 29.326 70.5374 29.3525C70.3859 29.3771 70.1861 29.4008 69.938 29.4235C69.7164 29.4425 69.5081 29.4794 69.313 29.5343C69.1179 29.5874 68.9456 29.666 68.796 29.7701C68.6463 29.8743 68.5289 30.0097 68.4437 30.1764C68.3585 30.343 68.3158 30.5476 68.3158 30.79C68.3158 31.0779 68.3774 31.3175 68.5005 31.5088C68.6255 31.6982 68.795 31.8402 69.009 31.9349ZM70.5829 31.0741C70.4636 31.1347 70.3291 31.165 70.1795 31.165C70.0204 31.165 69.8888 31.1271 69.7846 31.0514C69.6823 30.9756 69.6312 30.8658 69.6312 30.7218C69.6312 30.6271 69.6549 30.5457 69.7022 30.4775C69.7514 30.4074 69.8215 30.3506 69.9124 30.3071C70.0052 30.2635 70.117 30.2313 70.2477 30.2105C70.312 30.201 70.3793 30.1906 70.4494 30.1792C70.5194 30.1679 70.5876 30.1546 70.6539 30.1394C70.7202 30.1243 70.7808 30.1082 70.8357 30.0912C70.8925 30.0741 70.9408 30.0552 70.9806 30.0343V30.4491C70.9806 30.5912 70.9446 30.7162 70.8727 30.8241C70.8007 30.9302 70.7041 31.0135 70.5829 31.0741ZM75.3512 32.0689C75.0144 32.0365 74.7174 31.9464 74.4602 31.7985C74.1325 31.6091 73.8806 31.3459 73.7045 31.0088C73.5283 30.6698 73.4403 30.2777 73.4403 29.8326C73.4403 29.3857 73.5283 28.9936 73.7045 28.6565C73.8825 28.3175 74.1353 28.0533 74.463 27.8639C74.7925 27.6745 75.1855 27.5798 75.642 27.5798C76.0454 27.5798 76.3967 27.6527 76.696 27.7985C76.9971 27.9444 77.2319 28.1508 77.4005 28.4179C77.571 28.683 77.6609 28.9946 77.6704 29.3525H76.3721C76.3456 29.129 76.2698 28.9538 76.1448 28.8269C76.0217 28.7001 75.8607 28.6366 75.6619 28.6366C75.5009 28.6366 75.3598 28.6821 75.2386 28.773C75.1174 28.862 75.0227 28.9946 74.9545 29.1707C74.8882 29.3449 74.855 29.5608 74.855 29.8184C74.855 30.076 74.8882 30.2938 74.9545 30.4718C75.0227 30.648 75.1174 30.7815 75.2386 30.8724C75.3598 30.9614 75.5009 31.0059 75.6619 31.0059C75.7906 31.0059 75.9043 30.9785 76.0028 30.9235C76.1031 30.8686 76.1855 30.7881 76.2499 30.6821C76.3143 30.5741 76.355 30.4434 76.3721 30.29H77.6704C77.6571 30.6499 77.5672 30.9643 77.4005 31.2332C77.2357 31.5021 77.0037 31.7114 76.7045 31.861C76.474 31.9756 76.2099 32.0457 75.9122 32.0714L75.8835 32.2332C76.0918 32.2635 76.2585 32.3383 76.3835 32.4576C76.5085 32.5788 76.5719 32.736 76.5738 32.9292C76.5757 33.2247 76.4346 33.4576 76.1505 33.6281C75.8683 33.8004 75.4753 33.8866 74.9715 33.8866L74.9658 33.3156C75.2253 33.3156 75.4261 33.2862 75.5681 33.2275C75.7102 33.1688 75.784 33.0798 75.7897 32.9605C75.7954 32.8506 75.7528 32.7626 75.6619 32.6963C75.571 32.6319 75.4299 32.5874 75.2386 32.5627L75.3512 32.0689ZM79.27 31.9349C79.4859 32.0277 79.733 32.0741 80.0114 32.0741C80.2141 32.0741 80.3959 32.0485 80.5569 31.9974C80.7198 31.9463 80.8609 31.8696 80.9802 31.7673C81.1014 31.665 81.2008 31.54 81.2785 31.3923H81.3126V32.0002H82.6194V29.0343C82.6194 28.8033 82.5711 28.5978 82.4745 28.4179C82.3798 28.2379 82.2453 28.0864 82.0711 27.9633C81.8969 27.8383 81.6923 27.7436 81.4575 27.6792C81.2226 27.6129 80.966 27.5798 80.6876 27.5798C80.2974 27.5798 79.9631 27.6404 79.6847 27.7616C79.4082 27.8809 79.1904 28.0457 79.0313 28.2559C78.8741 28.4643 78.7766 28.701 78.7387 28.9662L80.02 29.0116C80.0503 28.8715 80.1213 28.7616 80.233 28.6821C80.3448 28.6025 80.4925 28.5627 80.6762 28.5627C80.8467 28.5627 80.9821 28.6025 81.0825 28.6821C81.1828 28.7616 81.233 28.8743 81.233 29.0201V29.0343C81.233 29.1233 81.198 29.1925 81.1279 29.2417C81.0597 29.2891 80.9499 29.326 80.7984 29.3525C80.6469 29.3771 80.447 29.4008 80.1989 29.4235C79.9773 29.4425 79.769 29.4794 79.5739 29.5343C79.3789 29.5874 79.2065 29.666 79.0569 29.7701C78.9073 29.8743 78.7898 30.0097 78.7046 30.1764C78.6194 30.343 78.5768 30.5476 78.5768 30.79C78.5768 31.0779 78.6383 31.3175 78.7614 31.5088C78.8864 31.6982 79.0559 31.8402 79.27 31.9349ZM80.8438 31.0741C80.7245 31.1347 80.59 31.165 80.4404 31.165C80.2813 31.165 80.1497 31.1271 80.0455 31.0514C79.9433 30.9756 79.8921 30.8658 79.8921 30.7218C79.8921 30.6271 79.9158 30.5457 79.9631 30.4775C80.0124 30.4074 80.0825 30.3506 80.1734 30.3071C80.2662 30.2635 80.3779 30.2313 80.5086 30.2105C80.573 30.201 80.6402 30.1906 80.7103 30.1792C80.7804 30.1679 80.8486 30.1546 80.9148 30.1394C80.9811 30.1243 81.0417 30.1082 81.0967 30.0912C81.1535 30.0741 81.2018 30.0552 81.2415 30.0343V30.4491C81.2415 30.5912 81.2056 30.7162 81.1336 30.8241C81.0616 30.9302 80.965 31.0135 80.8438 31.0741ZM79.216 27.0912L79.9404 27.0968C79.9404 26.9586 79.9688 26.8525 80.0256 26.7787C80.0825 26.7029 80.1573 26.665 80.2501 26.665C80.3296 26.665 80.4025 26.6877 80.4688 26.7332C80.5351 26.7768 80.6042 26.8279 80.6762 26.8866C80.7501 26.9453 80.8372 26.9974 80.9376 27.0429C81.0379 27.0883 81.1601 27.1101 81.304 27.1082C81.5654 27.1063 81.787 27.0059 81.9688 26.8071C82.1506 26.6063 82.2444 26.3156 82.2501 25.9349L81.537 25.9264C81.5351 26.0608 81.5076 26.1679 81.4546 26.2474C81.4035 26.3251 81.3239 26.3648 81.216 26.3667C81.1402 26.3667 81.0683 26.3449 81.0001 26.3014C80.9338 26.2559 80.8618 26.2038 80.7842 26.1451C80.7084 26.0845 80.6203 26.0324 80.52 25.9889C80.4215 25.9434 80.3022 25.9207 80.162 25.9207C79.8987 25.9226 79.6753 26.022 79.4915 26.219C79.3078 26.416 79.216 26.7067 79.216 27.0912ZM84.7239 31.8014C85.0535 31.9889 85.4474 32.0826 85.9058 32.0826C86.3641 32.0826 86.7571 31.9889 87.0847 31.8014C87.4143 31.612 87.6671 31.3487 87.8433 31.0116C88.0213 30.6726 88.1103 30.2796 88.1103 29.8326C88.1103 29.3838 88.0213 28.9908 87.8433 28.6537C87.6671 28.3146 87.4143 28.0514 87.0847 27.8639C86.7571 27.6745 86.3641 27.5798 85.9058 27.5798C85.4474 27.5798 85.0535 27.6745 84.7239 27.8639C84.3963 28.0514 84.1434 28.3146 83.9654 28.6537C83.7893 28.9908 83.7012 29.3838 83.7012 29.8326C83.7012 30.2796 83.7893 30.6726 83.9654 31.0116C84.1434 31.3487 84.3963 31.612 84.7239 31.8014ZM86.3376 30.8809C86.222 30.9832 86.0809 31.0343 85.9143 31.0343C85.7419 31.0343 85.5961 30.9832 85.4768 30.8809C85.3594 30.7787 85.2694 30.6366 85.2069 30.4548C85.1463 30.273 85.116 30.0627 85.116 29.8241C85.116 29.5817 85.1463 29.3696 85.2069 29.1877C85.2694 29.0059 85.3594 28.8639 85.4768 28.7616C85.5961 28.6593 85.7419 28.6082 85.9143 28.6082C86.0809 28.6082 86.222 28.6593 86.3376 28.7616C86.4531 28.8639 86.5412 29.0059 86.6018 29.1877C86.6643 29.3696 86.6955 29.5817 86.6955 29.8241C86.6955 30.0627 86.6643 30.273 86.6018 30.4548C86.5412 30.6366 86.4531 30.7787 86.3376 30.8809Z" fill="white"/>
</svg>
